/* XPM */
static char *_4396_2f8e5eed22882e508b7b19a95722aef22ce6e9cbb1e142844f6b08c4bc2c6417[] = {
/* columns rows colors chars-per-pixel */
"64 64 100 2 ",
"   c gray30",
".  c #4E4E4E",
"X  c #515151",
"o  c gray32",
"O  c #535353",
"+  c gray33",
"@  c #555555",
"#  c #565656",
"$  c gray34",
"%  c #585858",
"&  c gray35",
"*  c #5A5A5A",
"=  c #5B5B5B",
"-  c gray36",
";  c #5D5D5D",
":  c gray37",
">  c #5F5F5F",
",  c #606060",
"<  c gray38",
"1  c #626262",
"2  c gray39",
"3  c #646464",
"4  c #656565",
"5  c gray40",
"6  c #676767",
"7  c #686868",
"8  c DimGray",
"9  c #6A6A6A",
"0  c gray42",
"q  c #6C6C6C",
"w  c #6D6D6D",
"e  c gray43",
"r  c #6F6F6F",
"t  c gray44",
"y  c #717171",
"u  c #727272",
"i  c gray45",
"p  c #747474",
"a  c gray46",
"s  c #767676",
"d  c #777777",
"f  c gray47",
"g  c #797979",
"h  c gray48",
"j  c #7B7B7B",
"k  c #7C7C7C",
"l  c gray49",
"z  c #7E7E7E",
"x  c gray50",
"c  c #808080",
"v  c #818181",
"b  c gray51",
"n  c #838383",
"m  c #848484",
"M  c gray52",
"N  c #868686",
"B  c gray53",
"V  c #888888",
"C  c #898989",
"Z  c gray54",
"A  c #8B8B8B",
"S  c gray55",
"D  c #8D8D8D",
"F  c #8E8E8E",
"G  c gray56",
"H  c #909090",
"J  c gray57",
"K  c #929292",
"L  c #939393",
"P  c gray58",
"I  c #959595",
"U  c gray59",
"Y  c #979797",
"T  c #989898",
"R  c gray60",
"E  c #9A9A9A",
"W  c #9B9B9B",
"Q  c gray61",
"!  c #9D9D9D",
"~  c gray62",
"^  c #9F9F9F",
"/  c #A0A0A0",
"(  c gray63",
")  c #A2A2A2",
"_  c gray64",
"`  c #A4A4A4",
"'  c #A5A5A5",
"]  c gray65",
"[  c #A7A7A7",
"{  c gray66",
"}  c #A9A9A9",
"|  c #AAAAAA",
" . c gray67",
".. c #ACACAC",
"X. c gray68",
"o. c #AEAEAE",
"O. c #AFAFAF",
"+. c gray69",
"@. c #B1B1B1",
"#. c #B4B4B4",
/* pixels */
"B c z z s > * % = : 2 2 , p L _ A | C c c s , $ 1 6 9 t / ` ` ` _ _ W B x x k 4 = = = = * = @ u ` J ) F F F F D n T ` ' _ Q I N ",
"N z z z z 4 ; > : , 1 2 ] } ....| ( B c c c w : < t y ( ' } [ ` _ _ ( ! M x x j r , = = = @ O O O = n S C F H F ) ` [ ] ] _ G S ",
"n z z l z > > > 1 1 w ..@.+.O...{ { D m c c h u y t y ^ _ _ [ [ _ _ _ ) ~ x x x k 3 4 > - + O O # & : q y F F Q _ ` ] ] ] _ F Z ",
"B x z z r > , 2 1 2 C X.X.X.X.X.( D V B c z i 9 y y / _ _ _ _ _ _ _ _ _ R H n x x f 0 1 , % = + = = = > w I Q ` _ ` _ / B J Z B ",
"m c z z = = , 2 s ] ....X.X. ./ C C V V c c + # u ( _ _ _ ! Q _ _ ] } ` ~ D F C N n u 6 1 2 < , = - = 2 y Y _ _ / D G m m m m m ",
"m C z k ; = , 1 N | ..X.` _ R D V V B B c j * # y ` _ _ _ B C G D E | ^ I P D F N N M t 2 2 2 2 1 1 1 1 b ) ( _ K C N v c c m m ",
"n b x z 7 < 2 ) ] |  .' Y T G V N V N c c u + , P [ | _ R Z B B B G T ^ F F F D N N N m 1 1 1 2 2 2 2 2 4 Y Q W F V b c c v m m ",
"n c z z z k T ` [ { ( _ P V V N c c b c j y + $ B [ | _ ~ Y C B B F S S F D D D N N N N 5 % % < 2 2 2 2 0 S T T Y N b v v b m m ",
"m u z j z E / ( ) ( W M B V V c c c c c u & # # | | { ' ~ U G S B B N M c M M N N N N b $ $ % 2 < 2 2 2 3 j Z T T N m m m m m m ",
"f 2 7 3 h Q / ~ ! A B v x x x x c x k u r $ $ 6 { | } _ R U L H F C m v c b n m M N N N $ $ $ * 2 2 3 2 2 2 2 T Y T D m m m n b ",
"2 2 2 2 2 ! ! ! Q Z v x z z l c x x h y y & $ % B _ ) ! W L K H H S M c c c c c m N i 9 $ $ $ % < 3 3 2 2 2 2 y n K m m m m c c ",
"2 1 2 2 4 b E Q E B m b z l j k l j u 0 3 $ $ $ Z D Q Q P K J G H D N n c c c c b x l - $ $ $ $ 4 4 3 2 2 2 2 2 2 y c m m b 1 1 ",
"> 1 2 2 2 2 B E I V B z z z k j d p u $ $ $ $ $ c N F P F b b M M M N M m c c c c f & % $ $ $ % 2 6 z 7 2 2 2 2 2 2 2 2 @ + 2 > ",
", > 1 2 2 2 0 W Q R B V z k j h h u t * $ $ $ $ c c c c v b b b b M N N N c c c x 5 $ $ $ $ 4 ! ] ] ] ] 5 2 2 2 2 2 2 > $ & 1 > ",
"1 2 , > 2 2 2 u Y Q V M x j j p r u $ # $ $ $ $ 9 z c c c b b v b b M M c c c c c & $ $ % 3 ] ] ] ] ] ] y 2 2 2 2 2 2 2 2 1 2 2 ",
"2 2 > , 1 2 2 4 6 0 n f j j u t # + + + $ $ & - 4 i x c z c c c b v v x c c c c 1 # $ l ' ] ] ] ' ' ] L b x 5 2 2 2 2 2 2 2 2 3 ",
"p r v T j 3 1 : & % $ & $ $ $ $ # + + @ % * - 2 8 8 g h k c c c x x x 0 k # # # % h ) ] ] _ _ W Q Y E n c c c 2 2 2 2 2 2 2 t e ",
"T E Y ( ) W y % $ $ $ $ $ $ $ $ # $ # : ; 3 5 8 7 8 8 g j k x x j a % # * # # : } { | ' W W Q W E Z c c c c c c 2 2 2 2 5 e t t ",
"E W ) _ ` ) c 6 $ $ $ $ ; ; : > > > > > , 4 8 8 7 2 8 9 u p p a y % # # # # # S | | } ( W E W I B v c c c c c c c 2 2 2 r t y E ",
"E O. .| } ' b - $ $ * ; > > e > 2 > 8 > t j 8 8 7 2 5 8 , 5 & % # # # # # - ' | | / / W W W V Z V v v c c c c c c c r y t t s A ",
"+.o.X.[ { H k 8 & % = > 6 i I / _ _ ! ^ ~ D d 8 8 8 2 2 $ & $ $ # # # # g C | [ ( ^ ! W R A V V V V V B c c b v c c z i t t f U ",
" .+.+.D n l k 9 & $ : 0 / _ ^ _ _ _ _ ( ) ! D s w 6 2 2 $ $ $ # # # # # b #.} ( ^ ^ R A V V V V V V V V B B N V V V V 5 t e d G ",
"X.+.n v l k h > > > < T _ _ _ _ _ ) _ / ! ! ! z f q 2 , % $ $ $ # # & & 1 ^ ( ^ ^ ! C V V V V V V V V V V V V V V V V 0 < = d f ",
"g h l k l f d > > > 1 ) _ _ _ _ _ / W ! U Q F l k y 7 4 $ $ $ $ $ % 1 1 1 F W ~ F V V V V V A A D V C V V C C V V V k 0 = = a f ",
"f f j l g p , > > > > Y ) ) ) / ! ! Q Z n v z j j j j $ $ $ $ $ 1 2 2 2 2 2 F C M V V V Z S F F F F F Z Z C C C V V < = = = ; a ",
"d f f g s 9 > > > > < S T ! ! E ! n N n v j j j j j j $ $ $ & < 2 2 2 2 2 2 3 k c c m B D D F F D F F D S C C C s 8 = = = = - a ",
"i f a s , > > > > > > x F Q ! L F n x n z j j j f h , $ $ $ $ < 2 2 2 2 2 2 2 7 z x x C D F F C C D D S D C C c : ; = - = = = 3 ",
"6 e , > > > > > < > > w a a b u g v k i e h j h 1 $ $ $ % $ 1 1 0 2 2 2 2 2 2 3 2 1 c j V C C C C C C C C c 3 r : : ; ; ; = - 5 ",
"> > > > > > , 6 i p q 4 $ > o # o o O & @ ; O + $ $ $ $ $ 7 3 2 m C M n r 5 2 2 2 : < $ i C C C C C z v n q : : : : : : , : 1 1 ",
"> > > > > , w u d a p a ; # o o o o O o o o   . $ $ $ $ < x Z Z Z A Q ! a m b 2 2 - $ % : : 3 p b B 2 9 : : : : : : : : 4 7 6 4 ",
"> > > > > e f c _ W a e $ # $ $ $ @ $ # $ $ + # $ $ $ 8 d Z Z Z J R ! / ! N V y w ; = ; > > 3 3 9 8 > : : : : : : : < 4 7 7 7 3 ",
"2 , > > > d _ ( _ ) R _ ( $ $ $ $ $ $ $ $ $ % $ $ 3 M Z C Z Z Y ~ Q ] | ! Y S c z l h q 2 3 3 3 3 3 : : : : : : : : 4 4 6 6 6 4 ",
"1 > > < a ( ) _ _ _ _ _ ! I b j ; 1 ; : : - : - ; Z Z Z K Y Y Q ! } | } } Q ! G J C c x 3 4 3 3 3 3 : : : : : : > 2 3 4 5 6 3 2 ",
"1 2 1 4 s Q _ _ [ | ] ` _ ~ Z b b t 3 : : : : : 3 Z C Z Y Y Y Q ~ | | | } } ) J J J b x x 9 e 3 3 1 : : : : 4 > > 1 2 2 2 2 2 2 ",
"2 2 2 2 ! _ _ _ { | [ ' ~ ^ N b b b c 8 : : : : 7 u B Z Y I T ! Q ' | | | } { / H H B c c c c S 0 3 > : : , 1 : ; 1 2 2 2 2 2 2 ",
"2 2 2 e E ! / _ } | ^ ~ V V B n b b b 4 : : : : < 7 w l A F Y U Q { }  .| | | ^ H V b l z c c B C t ; : ; - : = = 1 2 2 c d 2 2 ",
"2 > 2 r f P Q Y ( V V V V V V b b b c i : : : : < 4 9 w g z S I Y ~ { | ' [ ) J S V v r r c c D D > = = = = = = = e 2 2 } | 2 2 ",
"> > , 1 u c M V V V V V V V B b v v c h : : : < 2 2 2 2 q u Z C C C Q ! ! Q T G V V l w w c c v g 1 = = = = = = 2 ) ] | | | ( 5 ",
"6 ; > : 5 c c m B V N B N B b v c c j 9 , : 1 1 2 2 2 2 0 0 0 N C V D W ! U V V B c y w w x k z - ; = = = - , k | | | | | | [ m ",
"w O O $ 1 c x c M B c c b c v B v j s > : : 2 2 2 2 2 2 4 2 9 9 z n V M Z V M B b x z a w l w : = = = = < 0 J X.| | | | } { Q M ",
"@ O O % = > c x c v c c c c x z j j : : : : 2 2 2 2 2 2 2 2 8 : 3 g a l c c c c c c c p e w = = = = - 1 4 _ O.+.| | { [ ' W n g ",
"O O O O $ $ > d c c c c c l k j g > : : : 1 2 2 2 2 2 2 7 8 8 = = 3 9 y u g x c c c l s q = = = = = > 1 ' O.+.| } } ! Q Q m b c ",
"% O O O # $ * = f c x c l j j j 2 : : : : < 2 2 2 2 3 5 9 9 8 = = = - 8 i s s x k x x d 1 = = = = < < +.+.o. .| ] ~ ! E L m b f ",
"O O + $ $ * = * 3 1 a y j e 9 5 : : : : < 2 2 2 t 9 8 8 q 9 9 8 = = = = * 8 i i w a , - = = = = 3 5 F +.O.{ { ! ~ T L H n b v k ",
"O O O # = = = = $ $ * O O * = = : : : 2 1 2 2 0 _ ^ x Z c n v n 4 = = = % @ + % = = = = = = = 4 1 I +.+.+.` ^ ! E K K C n b c j ",
"& O O $ = = = * $ # O O O O = = ; ; 2 2 3 5 U K _ ' _ ) R n n b p r 8 ; = O o O & = = = : 2 3 4 x { O.O.' ^ R I K K F m n c c g ",
"$ $ # % : > : = $ # $ @ $ % * = = ; 1 2 2 N ^ _ _ { X.o.O.n M n n j i 9 = - @ = = = > 2 1 2 2 G K ..O.} | E L K J K K m b x k - ",
"$ $ $ , < 1 7 , 1 $ $ & = = = = * : < 1 2 M / ) _ O.o.o.O.H C n n m s f u t < 2 2 2 2 2 2 2 9 Z K { | [ ~ K H Z M Z B M v k f - ",
"$ $ * < 1 2 E S K Y D B 5 = = * * * ; 2 < y N _ _ _ | o.( H G H A F ^ ! ! ! 0 7 2 2 2 2 2 2 G K T } | | Y M C M M M m x x j - $ ",
"$ = < u Q ^ ^ E E R R I V x 7 = * * * * * r z B W T E E R H H H H Q  .| { ~ T Q 0 2 2 2 2 r v K W ` | | R M M M M M m c h = * $ ",
"- 1 4 m ^ ^ ^ Q E E R T D V f = * * * * * w g c m J U Y H H H H J ~ ' | | ! ! ! R 2 2 2 2 2 2 J K J H P G M M M M m z k j : $ = ",
"5 4 ^ ^ ^ ^ ^ ~ E R T Y G V V 7 > * * * * * * 5 f m H H H H F G G W ( ! Q Q Q ! E i 7 3 2 2 w j J G B V B M M m m c x d , = = - ",
"5 ! ) ) _ ) / E E R G J G A B s 4 - ; * * * * = 3 8 8 s u a s z x J L Q Q R L I V v g 2 2 2 3 1 h c j N c n M m x x j 3 = = = 2 ",
"4 ! ) _ _ _ ) E T J G G F B M c d 7 , = * * % $ $ % 5 5 6 i p a a f B N D Z C M m z z p 5 2 2 = = y j j j l c c z j g = = = - 4 ",
"p ~ _ _ ) _ ( E E H G G G B v c d 8 7 , = * $ $ $ $ = 5 3 3 u a p t i c N b m n c z z p u 2 = = = w j j j j c z a j 8 = = ; 5 5 ",
"6 d Q ! W W R E R R J G A c c c d a t 7 5 6 = $ $ $ $ $ & > 4 6 3 8 5 a s x x c c l k a a 3 = = = = 8 q j j j j = = = = = 4 5 5 ",
"5 8 g S N S S R E R E G C c c c d a a i a i < $ $ $ $ $ $ * X + X X - 6 i g l l z l f a a 3 - = = : 1 6 = < $ , = = = = ; 3 5 5 ",
"5 6 8 f f k D D G R E D n c c l a a a a f k f d 1 $ $ $ $ & o X X X & = ; : a a a a a a a 2 < 2 2 2 3 4 > * = % = = = 1 1 2 4 5 ",
"5 6 7 f f f j N D S S N c c c l h a a d f f f f = $ * = = * - - = - * = = = 4 7 i a a i 0 2 2 2 2 4 3 4 5 4 3 1 1 2 1 2 2 2 5 5 ",
"6 6 6 f d f f f f f c c c c c l d f f f f f f y $ = = ; , > : > : : ; = = = = - , = 9 6 2 2 2 2 2 9 q 8 6 5 4 2 2 2 2 2 2 2 0 0 ",
"b b k g f 5 , f y d f k x c x f f f f f f f e $ $ : 4 7 6 0 7 q x h > - = = = = = = : = 2 2 2 3 j p N D u y 4 4 2 2 2 2 2 2 v b ",
"b b m z p % $ @ @ 5 y a s d 7 a s a q 0 $ = % $ & 6 7 7 7 r Q U N x c g > = = = = = = ; 1 1 2 8 / _ _ Q F S w 2 2 2 2 e v v b b ",
"b N m z j @ @ @ @ @ @ @ @ $ @ @ @ # < $ & $ $ $ $ 7 7 7 7 / ! ( J n c c z - = = = = = = ; < 1 S ` ` _ ( F F F 3 2 3 2 h v b b b ",
"b N n x z = = @ @ # @ # @ # @ @ 2 @ $ $ & $ $ $ $ 7 7 7 q ~ ` _ ) L m v c z < = = = = = = - < _ ` ` _ ( G F B f l v _ Q ( R D n "
};
