/* XPM */
static char *_8418_f0069ec0a927f4fddf0d64a6b3af36e6ee434d9b18da2893aeb639b8c4e7169f[] = {
/* columns rows colors chars-per-pixel */
"64 64 239 2 ",
"   c #1A2B396CFFFF",
".  c #1C2D36C3FFFF",
"X  c #292B386BFFFF",
"o  c #3BC13C2AFFFF",
"O  c #33D33AA9FFFF",
"+  c #2D8F2A75FFFF",
"@  c #3DE81BB0FFFF",
"#  c #57FB15CCFFFF",
"$  c #4B8A1529FFFF",
"%  c #6C3C18D5FFFF",
"&  c #7B9D13F7FFFF",
"*  c #75381B67FFFF",
"=  c #7C3D1ACAFFFF",
"-  c #753313CBFFFF",
";  c #6E8B0D81FFFF",
":  c #42BB3CB2FFFF",
">  c #488F36C5FFFF",
",  c #557236E3FFFF",
"<  c #4EFE2567FFFF",
"1  c #7CB2244CFFFF",
"2  c #76F5281FFFFF",
"3  c #68B2341DFFFF",
"4  c #743D3296FFFF",
"5  c #6D4E2B48FFFF",
"6  c #11155212FFFF",
"7  c #28EA47CAFFFF",
"8  c #3B03441DFFFF",
"9  c #33644BDFFFFF",
"0  c #38C54817FFFF",
"q  c #2A2757BCFFFF",
"w  c #373C569EFFFF",
"e  c #0CF97D9DFFFF",
"r  c #065A7808FFFF",
"t  c #12F07CDFFFFF",
"y  c #19AA78DDFFFF",
"u  c #0F7466E5FFFF",
"i  c #38C36A67FFFF",
"p  c #267E79B0FFFF",
"a  c #367C75FCFFFF",
"s  c #47AE47CEFFFF",
"d  c #449553C7FFFF",
"f  c #584E4FB4FFFF",
"g  c #65FC5946FFFF",
"h  c #765E5B52FFFF",
"j  c #774C47A3FFFF",
"k  c #49D166AAFFFF",
"l  c #594F69D8FFFF",
"z  c #5B7C7BD6FFFF",
"x  c #5BAA754DFFFF",
"c  c #47A37785FFFF",
"v  c #651E6DA8FFFF",
"b  c #6DDA6C2CFFFF",
"n  c #68C16390FFFF",
"m  c #73BE6532FFFF",
"M  c #7BD864E6FFFF",
"N  c #74866C7DFFFF",
"B  c #7BAB6C1FFFFF",
"V  c #646574BAFFFF",
"C  c #6C0E73A5FFFF",
"Z  c #63807C9AFFFF",
"A  c #6C8F7C34FFFF",
"S  c #74347486FFFF",
"D  c #7C487395FFFF",
"F  c #74DE7CD4FFFF",
"G  c #7BC47C54FFFF",
"H  c #8317148EFFFF",
"J  c #838E1AC6FFFF",
"K  c #8AF019F9FFFF",
"L  c #897A0DE7FFFF",
"P  c #AA04168BFFFF",
"I  c #847E2447FFFF",
"U  c #89482863FFFF",
"Y  c #88C4339FFFFF",
"T  c #972E36A0FFFF",
"R  c #AA333AA8FFFF",
"E  c #B9FE3987FFFF",
"W  c #B4E228C5FFFF",
"Q  c #CC593AABFFFF",
"!  c #C62D3912FFFF",
"~  c #D9273952FFFF",
"^  c #CBB1239AFFFF",
"/  c #E65D3B92FFFF",
"(  c #E4BA38E5FFFF",
")  c #95F35A49FFFF",
"_  c #8B8852EAFFFF",
"`  c #BB5D47F4FFFF",
"'  c #A5055719FFFF",
"]  c #B7D95836FFFF",
"[  c #A8B0454BFFFF",
"{  c #84376488FFFF",
"}  c #8BB6646DFFFF",
"|  c #84076BCBFFFF",
" . c #8CC26BB3FFFF",
".. c #93A06CB8FFFF",
"X. c #9BFE6BCDFFFF",
"o. c #984F6380FFFF",
"O. c #830E7384FFFF",
"+. c #8BDA73E0FFFF",
"@. c #83B77BE6FFFF",
"#. c #8B5C7C71FFFF",
"$. c #934B73C6FFFF",
"%. c #9C1873F0FFFF",
"&. c #939A7C65FFFF",
"*. c #9C297BE2FFFF",
"=. c #A3AB6966FFFF",
"-. c #A40C7829FFFF",
";. c #B8DA7A3EFFFF",
":. c #B9166962FFFF",
">. c #C7ED47EDFFFF",
",. c #D73047E5FFFF",
"<. c #C87055AEFFFF",
"1. c #D5A45949FFFF",
"2. c #E83347AAFFFF",
"3. c #F491578EFFFF",
"4. c #C72277B6FFFF",
"5. c #D8E7786DFFFF",
"6. c #CEAF68A1FFFF",
"7. c #F729641DFFFF",
"8. c #E4A07C8FFFFF",
"9. c #EC137C27FFFF",
"0. c #E92B75E8FFFF",
"q. c #F3D17C9FFFFF",
"w. c #FA567934FFFF",
"e. c #035F8390FFFF",
"r. c #0C9C82ECFFFF",
"t. c #083A8B78FFFF",
"y. c #12BE8377FFFF",
"u. c #1B43831EFFFF",
"i. c #160A8BB5FFFF",
"p. c #0C7C969FFFFF",
"a. c #268085B5FFFF",
"s. c #38A789CCFFFF",
"d. c #2F4995F9FFFF",
"f. c #092FA859FFFF",
"g. c #1504B726FFFF",
"h. c #36D7A9FDFFFF",
"j. c #2908B80DFFFF",
"k. c #334BB420FFFF",
"l. c #3A5CBC1DFFFF",
"z. c #37A8B817FFFF",
"x. c #2A9CA3EAFFFF",
"c. c #5B118800FFFF",
"v. c #5A1097DFFFFF",
"b. c #45E691C1FFFF",
"n. c #64118418FFFF",
"m. c #6D7683E0FFFF",
"M. c #64028BE5FFFF",
"N. c #6C7B8C57FFFF",
"B. c #74A28386FFFF",
"V. c #7C05841FFFFF",
"C. c #75288B38FFFF",
"Z. c #7B7B8C1AFFFF",
"A. c #63C1933BFFFF",
"S. c #693499E8FFFF",
"D. c #74BB930FFFFF",
"F. c #7B7A9356FFFF",
"G. c #776E9B89FFFF",
"H. c #4603AD1FFFFF",
"J. c #58E8A889FFFF",
"K. c #45E6B810FFFF",
"L. c #54A6B861FFFF",
"P. c #66C7A5FEFFFF",
"I. c #7746A3DBFFFF",
"U. c #7A25B727FFFF",
"Y. c #6A97B64AFFFF",
"T. c #19D6C5C4FFFF",
"R. c #28D8C9A0FFFF",
"E. c #3800C58BFFFF",
"W. c #3810DD03FFFF",
"Q. c #35EAE3CFFFFF",
"!. c #48A0C523FFFF",
"~. c #5742C72EFFFF",
"^. c #576CD3E3FFFF",
"/. c #7952CAD6FFFF",
"(. c #6B67D92BFFFF",
"). c #7D56DBE2FFFF",
"_. c #770FD971FFFF",
"`. c #689CC638FFFF",
"'. c #4D59E6E4FFFF",
"]. c #7CA2E585FFFF",
"[. c #7C7AEB16FFFF",
"{. c #749FE8F2FFFF",
"}. c #7C30F16EFFFF",
"|. c #74D9F31BFFFF",
" X c #6B41EA1CFFFF",
".X c #837F83DDFFFF",
"XX c #8B698403FFFF",
"oX c #83E98C93FFFF",
"OX c #8BB88C14FFFF",
"+X c #945583D7FFFF",
"@X c #9BFE8428FFFF",
"#X c #93428BC4FFFF",
"$X c #9B7B8B1FFFFF",
"%X c #83E293B6FFFF",
"&X c #8AF09363FFFF",
"*X c #83689B08FFFF",
"=X c #8BA99B92FFFF",
"-X c #96AA969FFFFF",
";X c #A3E8881DFFFF",
":X c #B6B4891DFFFF",
">X c #A6989846FFFF",
",X c #B83E9226FFFF",
"<X c #9688A78CFFFF",
"1X c #8E5DB23AFFFF",
"2X c #A630A7F5FFFF",
"3X c #B915AC39FFFF",
"4X c #A78EB6B9FFFF",
"5X c #BA45B8F3FFFF",
"6X c #C7618620FFFF",
"7X c #D7ED86F2FFFF",
"8X c #CDD29AABFFFF",
"9X c #EC4583A1FFFF",
"0X c #E43F8A56FFFF",
"qX c #E772857BFFFF",
"wX c #F434837BFFFF",
"eX c #FAE683D9FFFF",
"rX c #F34C8B63FFFF",
"tX c #E7839FD1FFFF",
"yX c #C8A4AAD4FFFF",
"uX c #CBDEB4CDFFFF",
"iX c #C7EDB9D1FFFF",
"pX c #D51DB841FFFF",
"aX c #D673A80CFFFF",
"sX c #EE6DAFB4FFFF",
"dX c #87EBCADAFFFF",
"fX c #873FD8C2FFFF",
"gX c #9754D358FFFF",
"hX c #AB90C653FFFF",
"jX c #BB3AC57AFFFF",
"kX c #AD91D565FFFF",
"lX c #83A4E4D1FFFF",
"zX c #86EBE7F7FFFF",
"xX c #8440F2D2FFFF",
"cX c #96A2EFC1FFFF",
"vX c #AA83EB8EFFFF",
"bX c #C778C480FFFF",
"nX c #D83DC723FFFF",
"mX c #D02AD538FFFF",
"MX c #E447C7C0FFFF",
/* pixels */
"s.E.C.F.-X>XyX) ) p.A V D O.pX=.g k.Z.OX#X$XyXMXT.z.w.V.V.V.d   l l.F.Z.$X>XyX) b.l.&X%X&X-XiXj _ x.V C O.O.uX:.k E.-X-X&XOXyX} ",
"R A.E.=X<XiXV , E C.h.A F bX$XO E o.!.&X#XiXnXiXz.T.3Xw.F.w   o E  .l.=X<XiXD , ] P.!.=X=X5Xg 0 W ) K.c..XuXgX> E P.^.%X*X5Xm , ",
"| 8XG.!.jXh O } =.>.v.E.bX-X8 x A >...~.jXMX5X@ P < r w.s   q N.Z.>.=.^.5X| q gX_ ` N.K.5Xn.9 N.N.Q O.l.iX2Xu m o.>.G L.5Xl : { ",
"MX|.xXR.s.O B | -.X.>.U./.w v.m.F.U.,.4.-.L ; @ =.L >.( X q n.N.D.C.>.4.a : 0.a i %.mX'.gXu M.n.m.V.>.4XY.> f | -.;X<.*Xc.9 XX;.",
"P / w + w j.V.#.-.-.uXX.M k.c.I.F.Z.bX=.l k.G @.*.-.yXMXT.H.M.C.Z.F.iX8Xa.h.) sX|.cXK.X 3.|.'.|.'.G.pX-.i zX^.xX/.-.>X} x x.D +.",
"+X7.. o ! Z.E.&X+XaX-Xs R { K.P.I.jXV.0 ` *Xj.@.@XpX0XL 8.T.l.I.D.bX-Xs R J.vXsXB.0 . s [ / ] V.~.Q.z.8 R 3.g.$ 4 yX&Xs R M.l.#.",
"iXl O F #.,.S.E.bX3X0 N | [ =.L.hXv 0 V.OX<.J.E.pX>Xd V w.H.T.K.hX-X0 v b ` 7.` s   s b B [ / >.x P.p.v O.>.2.R.lX-X8 g g ! G K.",
"c.7 B..X#X;X1.1XhXH.(.).lXlX5X/.U.!.lXlXlXfXyX^.hXH._.(.3.& # t.fX~.{.{.[.xXjX/ X K._._.lX].iX~ P H r  XlXfX9.W u w n N A D Q >X",
"s.l.S.&X-X>XpX;XS.i 2 U I I U R s 2 * * = = = Q X H & & H - & 2.MX[.|.[.|.}.|.W.u Y 2 U I I 1 E sX}.f.K K Y 7Xv.a x.V M C S pX6X",
"[ v.!.I.<XiXm ` > %.k.B |  .B 5.s.A x N b S M q.r.C N G G V.XXwXeXV.V.F .XF F r.u B S D { } M 4.eXV.p.K.;XuX@.[ q { j.V.B.bX>X, ",
") >.F.~.jXB.0 9.y ! +.j.O.+.D 8.p n l S G C G 9.t Z @.XXOXF.XXq.eX.XV.V.V.F V.r y B D D S +.| 8.eX.Xs.f.pXc , 5.r.E OX!.jX&Xo } ",
"..X.<.1X=Xq M.9Xt n Q @.l.#.G 8.p z n.V.V.m.G q.r.N.Z.OX-XN.&XwXwXV.O.G G B.V.e.y.C { B D @.+.8.eXB.Z.R.j.!.lX7Xr.M.,.U.J.7 h | ",
"-.;XyXI [ k.A.rXe m.@.Q #.E.@.8.a.n.n.S G m.B.q.r.G.G.=X%XC.&X9XeXXXZ.Z.V.B.V.e.t V S  .O.+.@.0.eXC.> + # eXr 5.y.N.bX[ g j.C.@.",
"#XpXn o ! ' K.0Xr B.B ..! $XE.8.y c.Z G G B.Z.wXi.I.G.=XD.F.%XwXwXXX.X@.n.V.OXe.t F m.@.+.|  .q.rX6 + o XXP # 9Xi.hXV.s ` v.E.%X",
"iXF 7 V.&.,.o.3Xt v G +...~ B.hXa.c.c.C.OX%XF.9Xi.S.G.=XF.=X*XrXeXXXV.V.n.V.oXr y.G B.B.@.G &.q.0.r w oXXXXX+XqXz.k s XXXX] J.E.",
"A.0 D.F.<X>X<.4.E. X].[.zXlXaX;Xz.(.{.{.fXlX].mXH././.fX_.fX).uX~ H H - H ; &   R.xX[.lXlXlX[.nX~ u  X_.fXdXdXaXp 9 #.&.XXXX] U.",
"l E.Z.%X-X$XyXjXw 4 2 = = * H ,.X - H = K J J Q i 4 4 1 1 = * Q , 1 2 1 U I Y >.nX[.xX|.}.|.xXT.X & L % J = K ~ a.z.@.&.+X+X3Xh ",
"! %.!.&X&X5XD W y V.c.V N S B q.r.F @.#.&X@.XXwXq V F A x S O.9Xp n M | { } { 0.eXB.G V.V.XXV.e.r A F XXV.B.@.q.d S.!.-XOX3Xf 0 ",
"m.Q ' ~.5Xn : 0.u.{ k V &.c.G q.r.C.Z.oX+.XXOX9Xp C D v x A O.q.y N D M { }  .0.eXS V.G V.V.V.e.r.N.C.OX.XB.oXrXy ` D.L.4XV 9 m.",
"A.F.<.6.i s +.q.y x v b O.B F wXr.F.F.Z.OXOXXX9.y A F F m.S.C.wXy.S N N { | } 0.eXm..XV.V..XZ.e.y.N.C.V.V.C.#XwXt ..<.F.B.q N.D.",
"N.G.iX;.s.z.#.9.p c.n.B.G @.G q.y.Z.C.Z.XX+XV.qXp m.S F V.S m.wXt C b B B &.XX9XeXm.OXB.V.+XV.e.y.V.N.Z.%XoX&XqXt $.yXo.S h.N.C.",
"OXhXB.: E I.l.9.i.A.M.D.N.V..Xq.y.C.C.Z.oX#X%X0Xu.n.C O.D B.C.q.e S A.F XX-.O.wXeXC.G C..X&.n.e.y.B.C.Z.oX%X%X9Xt yXoXs R #.l.C.",
"hXA 0 Z.XX1.b.pXa.c.N.A.N.F.Z.9Xd.G.I.I.*X&X$X7Xu.c.D.Z.V.#.N.wXe F C B.OXXX&.q.eXF B.V.#.V..Xe.u.G.F.D.%X&X%X0Xk.-Xs n m >.) K.",
"x w %XF.OX5.g 6XH.(._.).].].].mXl.fX_.).fX).dX5XK._.{.{.].lXlXnXE.].].].lX].lXpX/ - & H & H - . ~.^._.].fX).dX5XJ.9 S V S | E 4.",
"T.H.oXZ.oX-XyX*.s 2 4 Y 1 1 U E : 2 2 W > % I ,.MX}.}.}.[.|.f.>.X = J I U I Y ] , * 1 I = 1 I R , 5 % * = = = ,.c h.V v b | pXnX",
"l.T.L.F.OX5Xg >.p B N m M M { 5.p C f h 4 +.XX0.eXG n.@.OXZ.f.5.e @.| $.+.....5.p m B m h { } 5.d.V V b B $.B.9.f v.k.n.F iXMX5X",
"V.l.R.L.5Xl 0 8.p B F N B | O.0.p Z Z F F +.{ 0.eX.XZ.Z.#.F v.T.t A @.$.$.O.%.5.p m M n { ..+.8.p Z Z Z G ..h 9.i E v.k.bXMXyXn.",
"B.XXh.T.v.w N.0Xy S { A G @.| 9.p z z A F | | q.eX.XV.G .XB..Xf.r.M @. .+XG *.5.y N m B +...+.9.p z z m.G F O.9.y $.<.1XmXbXZ.V.",
"Z.OX9 . h H.G.0Xt N O.D S D O.9Xi.z Z F B.A @.eXeXG F G XXF Z.p.e.G | O.o.$.*.8.e S F G D $.$.9.p z A B.N.V.V.wXt &.yX' ( ' XXV.",
"G #   : >.=.K.7Xt F O.D C D $.q.y.v.N.B.m.V.@.wXeXV.V.V.#.B.#.r e A .X+X#X$X$XqXe B.F @.V.&.+.0.u.c.A F V.V.V.wXt uXg : >.( ] Z.",
"# < 8 XX#.>.%.3Xr.m.@.N S V.+X9.u.n.c.M.N.C.%XrXeXV.oXG.F.F @.r e Z.&X%X@X#X;X7Xr.F B..X.X.X.Xq.u.M.N.N.Z.V.V.wXk.D 0 @.*.>./ $ ",
"M.0 oXXX@.XX1.,Xj.fX{.].lX[.lXnXk.(.).].].zX[.pX~ H H & H - H 6 R.].zXzXfXzXdXiXj.].[.zX].lX].nXk.(.).].lXzX].bXp 0 B.#X#X#X6.P.",
"c z.D O.$.*.yX:.7 K J K J I U >.8 2 1 1 I U I ] O H H H J I ,.kXmXg.g 4 U U U ` 7 H J J J Y U >.X & - & H K H ,.'.z.Z.$X$X#X3X_ ",
"U } !.F.-XiX@.[ r O.| $.+.X.X.5.y m n | } } } 5.e @.#.@.*.%.$.3.;XT.R.s.@.-.N 6.t }  .| %.=.@.5.e m.A V.XX&.&.9.7.T.K.OX+XyXl 3 ",
"s.! o.^.jXv s 8.e @.+.|  ...X.8.y n b { } }  .9.e O.&.XX#... .( q.OXt.q | { | 8.r.D } } o.o...8.r.N.M.%X&X&X&XwX2.+ D.cXvXt.7 :X",
"s.C.,.6Xb.s $.5.y.V | O. .o.X.0.r n N O.O. .$.0.r.XX#.{ O.+.*.q.wX.Xr D D | $.8.t C..X#.+...-.0.y.m.Z.F.=X=X&X9X7 | <.2.+ 0 z :X",
"s.D.nX=.d z.+.9.e Z .X#.F.+X;X9.t C @.@.@.#.$.9.r.V.G D %.#X@XpXeX.Xf.j.B +.&.9Xr.Z.%X%X%X#X;X9Xr.D.&XF.OXOXZ.9Xi.#.yXw.T.h.M.:X",
"b.jX$X> R m.K.9.e V.&XOXXX-X>XqXe B.B.@.#.@.#.wXe F oXZ.+X@X$X2.eXV.V.W.f.$.} 0.e oXZ.@.XX&X;X8.y.G.G.C.OXXXOXrXp.5X4.> 7.R.l.>X",
"dX%X0 N | >.V.yXr.%X%XoX&X$X>X7Xy.N.C.V.XXO.&.9Xr.V.-XC.#X$X;X8.eXV.G u . V.+XrXt.V.V.V.;X#X#X7Xd.D.C.G.&XoX#X7Xi -X9 N eXJ.T.`.",
"c.q Z C.S B ! 6.E.].lXzX[.fXgX5XR.zX{.[.[.].zXpXR.zXlX].zXzXlXbX~ - - u '.[.].sXj.lX].lXcXfXfX5XH._.]._.).).gX4Xl d n.B.w.D.H.g.",
"l x.A B V G uXaX7 H - J & J K ! , 2 * % = = J ,.mX}.}.}.}.xX[.T.: 5 2 * - K * ~ 0 4 1 1 = J I E O H H H K I U <.c.h.n.A 3.@.w   ",
"T n.k.B.B.iX>X>.r.B.C.Z..X.XXX9.p B l C G V.D w.eXC.C.V.G V.C.e.p V l v n _ n q.i k h m } } } 5.e N | ..%.$.%.qXq o.h.z 1./ . 3 ",
"c >.P.E.bX<Xd 9Xy.N.@.B.OX%XF.9.p z V B @.S S q.w.m.G .XV..XB.e.p v x b Z G O.q.y g n | | B } 0.e F #.&.*.&.-.8.t >..Xk.jXK : ;.",
"c *.<.P.1Xw m.qXy.M.B.oX#XOXF.qXp z Z F @.G oXwXeXB.C.V..XoX.Xe.y x x F m.B.V.q.t v S @.| D ..9.e F XX;X#.@X*.5.t m.,.H.P.o B 4.",
"c %.8X=.V H.D.qXy.N.F.%X&X#XZ.7Xa.c.n.V.V.oX.XwXeXXXn.Z.OXZ.V.e.y c.Z F S B.V.eXe v F S #..XoX9.r.B.XXO.-.+X@X8.y.N.5X] z j.#.4.",
"s.yX$Xs R ..K.0Xi.P.G.Z.OXXXoXqXt c.n.G @.N O.q.eXoXB.G V.@.B.e.y.z c.m.V..XZ.wXr B @.m.XX+.#.q.r.C.oX-X@X&.*.qXu.4X=Xf R A.l.6X",
"dX<Xs n h E ] 3Xp M.N.C.oX#XOX0Xy c.c.C.B.B.&.q.eXG A V.oXV.V.e.y.c.A.A.C.Z..XrXr.V.>Xv..X&.@.q.e F.F.=X#X+X$X5.L.F.d m m E B./.",
"1X0 l m b { ! 1.h.`._.).).fX).iX!.(.{.{.[.[.lXmX7.4 Y & - - - + j._.].].lX[.lXbXj.[.cX(.zX[.[.nXR.zXlXzXfXzX_.5XS.9 n B n B >.3X",
"j x.Z N N D pX0X7 * J K U U ] 4.mX|.xX[.}.}.xX'.iX_.fX{. X6 * Q 7 & H - J H K ! X = J K K U U <.f 8 & % K H H ~ i d.C b S .XpX] ",
"U | k.n.B.iX>X<.e G G &.-.yX+.<.eXm.G .XB.Z..Xs.6XV.D G u p.S q.e A G Z..X#.XXwXe | &.&.*.$.$.5.0 2Xj.M.F.%X#.wXd v.k.F .XiX+X3 ",
"s.! ..l.bX2X0 9.t.D D *.pXG f 0.eXB.Z.oXV.@.V.p 6XV.B.V.6 9 N q.t F oXoXZ..XXXq.r.@.%... ...%.5.t ~ c.R.=XS.=XrXy ` v.l.bX*X9 :X",
"s.C.>.,X/.w D.qXr G XXbX+.:  .8.eXA XXG XXm.V.s.:XV..XB.u m N w.e F &.XX%XP.#X9Xe V.&.| X.$.X.0.r..XQ &XR.D.I.rXe ..<.4Xv.w c.6X",
"s.D.iXyX} x.c.7Xy.%XmXS.0 @.$.8.eXm.V.G G S &.t 8.F @.r u A @.wXr.D.&XoX.XC OX9Xr.oX.XG ;XOX@X8.t Z.oX,.C.E.F.0Xt &.8XcXv.h.A.,X",
"s.bX2X, T X.K.0Xr.pXg X B #.@X9XeXoXB.B.G .X@.r.wXB.B.6 c m.Z.q.y.%XZ.oXZ.V.#X9Xr V.V.XX*.&.+X8.u.D.F.oXQ C.k.qXy.uXMX^.g.+.K.,X",
"dXOXs m N >.X.4X~.J.o A #.@X;X5.eXB.V.C.C.V.B.b.,XC.V.r C.G.N.eXi.I.G.%XD.%X-X0Xr..X%X*X$X$X#X7Xd.G.F.I.=X,.U.dXk.MX4XB.p.) X.`.",
"A.w N C b N Q <.c.s.lX[.lXzXzXjX2.j 4 H 5 * * # P = % t.[.[.{.nXl._.).).)._.fXyXR.lXzXlXzXzXfXbXK.(.fX).dX/.4.h nX4Xm.B.D.p.` 4.",
"v x.C C A S iX4.7.vXxX|.[.}.'.u 3.8X(.{.lX[.R.u Y < ; - H & E MXT.> J J J U <., T s * J H = E Y Y 8 = = I U ] _ / ' C.V.B.f.iX:X",
"T N.h.A S iX>X> R / ] V.XXd   , R ( ] C.Z.w X , R G j.F N pXMX2XH.T.!.oXOXyXf 7 ^ ) h.V.D iX-XO E ) K.oX&XiXg > E / ) OXN.t.G.4 ",
"l ` S.l.bXoX:  .| ! ^ $ P $ o M } ` / ] d . o ) } ! m.l.bXMX4XZ..XL.g.!.hXV 7 A B.,.%.z.iX2X7 V | ! :.~.5Xg : D ..>.( <.d . 8 ;.",
"c %.>.U.v.o B | { X.<.:Xi o h } | =.` / . 7 B &.&.%.<.dXMX4XXXC.B..XK.T.S.q v.G.G.%X,.,XU.w c.J.D.Z.,.:Xa O }  .O.X.>./   O =.;.",
"a +.8Xj n l.C M } ;XaX-.a j.B  .o.=.yX0Xg.l.oX#.%.&.aX4 / =..X.Xm..Xd . _ l.P.S.S.F.bXX._ z.S.I.P.I.pX:Xb.j.{ ..+.+.aXMXp.l.G 4.",
"p iXf > Q S j.F $XaX.X> E v.j..X*.uXh # P N.E.oX&.pXl o >.2.] G m.d . : Q ' l.D.I.jXG o Q ' h.oXN.hX-X: R c.E.#.$.uX6.# P M.l.5.",
"`.l O G -.,.P.!.bX=X8 m { E P.!.iXN o XX#.>.Y.E.bX@.fXcXxXcXtXG k   o F &.,.+.!.hXl 0 V.+X>...K.hX&Xd V S >.A.!.bXF T 7 @X6.P.hX",
"d.9 S.oX$X;X<.1X4Xq A S B | >.=XJ.q XX+X+X;X>.`.J.0 7.Z.V..XN.0   7 C.XX+X;X1.>Xi 9 .XOXOXOX1.-XD.9 n b F #.` 1XP.8 V.=X-X%.<.4X"
};
