/* XPM */
static char *_5097_fab4d17662980b7d4e4f67e3599e383810a7f30755cbc3552538bfa9a8f7de30[] = {
/* columns rows colors chars-per-pixel */
"64 64 256 2 ",
"   c #0A0000",
".  c #0E0000",
"X  c #120000",
"o  c #160000",
"O  c #150306",
"+  c #160307",
"@  c #190000",
"#  c #180001",
"$  c #1A0002",
"%  c #180307",
"&  c #180407",
"*  c #1D0001",
"=  c #1E0002",
"-  c #190508",
";  c #1A0409",
":  c #1C0509",
">  c #1D060A",
",  c #1B0C0F",
"<  c #1D0E11",
"1  c #1E1013",
"2  c #22060B",
"3  c #21070C",
"4  c #24070C",
"5  c #26070D",
"6  c #23080C",
"7  c #28070D",
"8  c #2A080E",
"9  c #201013",
"0  c #231115",
"q  c #221214",
"w  c #231215",
"e  c #241216",
"r  c #251317",
"t  c #271417",
"y  c #271418",
"u  c #291216",
"i  c #281417",
"p  c #291318",
"a  c #2A1418",
"s  c #2C1518",
"d  c #2E151A",
"f  c #2C1618",
"g  c #2D1619",
"h  c #2D171A",
"j  c #2F181A",
"k  c #30161A",
"l  c #31171B",
"z  c #34171C",
"x  c #33181B",
"c  c #32181C",
"v  c #34181B",
"b  c #34181C",
"n  c #37181D",
"m  c #39181D",
"M  c #2F1D20",
"N  c #301D21",
"B  c #321E21",
"V  c #331F22",
"C  c #341F22",
"Z  c #371F23",
"A  c #361F24",
"S  c #372023",
"D  c #372024",
"F  c #392024",
"G  c #382125",
"H  c #3B2026",
"J  c #3C2126",
"K  c #3F2127",
"L  c #3E2226",
"P  c #3D2227",
"I  c #402227",
"U  c #422228",
"Y  c #452228",
"T  c black",
"R  c black",
"E  c black",
"W  c black",
"Q  c black",
"!  c black",
"~  c black",
"^  c black",
"/  c black",
"(  c black",
")  c black",
"_  c black",
"`  c black",
"'  c black",
"]  c black",
"[  c black",
"{  c black",
"}  c black",
"|  c black",
" . c black",
".. c black",
"X. c black",
"o. c black",
"O. c black",
"+. c black",
"@. c black",
"#. c black",
"$. c black",
"%. c black",
"&. c black",
"*. c black",
"=. c black",
"-. c black",
";. c black",
":. c black",
">. c black",
",. c black",
"<. c black",
"1. c black",
"2. c black",
"3. c black",
"4. c black",
"5. c black",
"6. c black",
"7. c black",
"8. c black",
"9. c black",
"0. c black",
"q. c black",
"w. c black",
"e. c black",
"r. c black",
"t. c black",
"y. c black",
"u. c black",
"i. c black",
"p. c black",
"a. c black",
"s. c black",
"d. c black",
"f. c black",
"g. c black",
"h. c black",
"j. c black",
"k. c black",
"l. c black",
"z. c black",
"x. c black",
"c. c black",
"v. c black",
"b. c black",
"n. c black",
"m. c black",
"M. c black",
"N. c black",
"B. c black",
"V. c black",
"C. c black",
"Z. c black",
"A. c black",
"S. c black",
"D. c black",
"F. c black",
"G. c black",
"H. c black",
"J. c black",
"K. c black",
"L. c black",
"P. c black",
"I. c black",
"U. c black",
"Y. c black",
"T. c black",
"R. c black",
"E. c black",
"W. c black",
"Q. c black",
"!. c black",
"~. c black",
"^. c black",
"/. c black",
"(. c black",
"). c black",
"_. c black",
"`. c black",
"'. c black",
"]. c black",
"[. c black",
"{. c black",
"}. c black",
"|. c black",
" X c black",
".X c black",
"XX c black",
"oX c black",
"OX c black",
"+X c black",
"@X c black",
"#X c black",
"$X c black",
"%X c black",
"&X c black",
"*X c black",
"=X c black",
"-X c black",
";X c black",
":X c black",
">X c black",
",X c black",
"<X c black",
"1X c black",
"2X c black",
"3X c black",
"4X c black",
"5X c black",
"6X c black",
"7X c black",
"8X c black",
"9X c black",
"0X c black",
"qX c black",
"wX c black",
"eX c black",
"rX c black",
"tX c black",
"yX c black",
"uX c black",
"iX c black",
"pX c black",
"aX c black",
"sX c black",
"dX c black",
"fX c black",
"gX c black",
"hX c black",
"jX c black",
"kX c black",
"lX c black",
"zX c black",
"xX c black",
"cX c black",
"vX c black",
"bX c black",
"nX c black",
"mX c black",
"MX c black",
"NX c black",
"BX c black",
"VX c black",
"CX c black",
"ZX c black",
"AX c black",
"SX c black",
"DX c black",
"FX c black",
"GX c black",
"HX c black",
"JX c black",
"KX c black",
"LX c black",
"PX c black",
"IX c black",
"UX c black",
/* pixels */
"2 3 6 6 5 5 5 5 5 5 5 5 5 5 5 5 5 5 5 5 4 3 6 3 3 3 3 6 5 4 5 5 5 2 4 5 5 5 5 5 5 5 4 4 3 5 6 3 6 3 3 5 4 5 6 2 3 6 5 5 5 5 5 5 ",
"6 P P U U U U U U U U U U U U U U U U P L I P P P P P P P U I 5 4 P I U U U U U U U L P I P I P P P P P P I L U P P I U U U U 5 ",
"3 P b b n n n n n n n n n n n n c b n m b n c c c c c c v b c # 3 U b n n n n n n b c b c c c v c c c c v c c v c b n n n n n $ ",
"3 P v b v n n b n n n n n n n b c b b b b c b c c c c c b c c @ 6 U m n n b n b n v c c c c c c c c c c c c b c b v n n n n b # ",
"3 P b b b b c b v n n n n v n m b v c c b c c l c c c c c c c $ 5 P n n b m b c b c b v c c c c c c c c c c b c v c n n n n c $ ",
"3 P c v c c b m b n n n n n n b m b c c b c c c c r c c c c c o 3 I n n n n v v c c b b c c c c c c c c c c c c c l z c l v m @ ",
"3 I c c c c v b n n n n n c v c x m v l a c l c h h a c c c c o 3 D c d g x c c c c c b c c b n b b c c c c c c c c g c b c c o ",
"3 P c c b c b v a n n h c b c c c c v b c c c e , i x v c c c @ > A a k c c b c c c c c c c c v c c c c c c c c c k s a c c c o ",
"3 P c c b b c c a a x c c c c c c c h b h e e r < n c c c c c X ; G a a a c c c c c c c c c v c c c b c b c c l l j h a a c c @ ",
"3 P c c c c c c c v a c c c c c c c b g j j x t r u b n c v c o 3 P a a a c c c c c c c c n c c c c c b c c c x h l g c k c c o ",
"3 P c c c v c c l c m m c c c c c c c c g e c c c n k n b c c o 3 P c c a c v c c c c c b c c c b c c n b c b x c k l a c c c o ",
"3 P c c c c c c c c c m m m c b c c c v c c c c c c c n m b v $ 3 P c x c c c v c c c c c c c c c c c c b c c c c c c c c c c @ ",
"3 P c c c c c c c c c c m m v n m c c m c c c c c c n b b v b $ 3 A h c h c c c c c v b c b c c c c c c c c c c c c c c c c c o ",
"3 P c l c c c c c c c c v b m m c b m m b c c c c c c c c m m # 3 P a a k b c c c c m m c c c c c c c c c c c c c c c c c c c o ",
"3 P f c g c g c c c c c b c c m m m b c c c c c c c c c n c c $ 3 P c j i h y c c c c c c c c c c c c c c c c c c c c c c c c @ ",
"3 6 X @ X . X o o o o @ o o = * * * @ o o @ o o o o o o o o # o 3 3 @ # . . X @ @ @ o o o @ o o o   o o @ o o o o @ o o o o o o ",
"3 2 ; ; + O > > 3 3 3 3 3 3 3 3 7 5 8 6 3 6 3 6 3 3 6 3 6 3 3 3 3 3 3 O O ; 2 3 3 3 3 3 3 3 3 3 3 3 > O > 3 3 3 3 : 3 3 6 3 3 3 ",
"A A A A M P G 6 3 P P P P P P I I P P P P J J P P P P P D P L G A P G P S V D O 3 G N P P P P P P P B N P F P H S P G P P P P P ",
"h a a a a a b   3 P c c c c c b b m m c c c c c c c l c l h j c g c l c c y f X 3 N h c c c c a a a e e r c c i c j b c c c c c ",
"a a a a w c c o 3 P c c c m b c b v c b n c c c b b c c g k c r c c b c c h r   O F c c c c b k z e r r e b b v e w c c c c c b ",
"c j a c r c k @ 3 P c c v n m v b b b b x c c c v c c c c c c c b b c n m m r . 3 H b n c c c s z m b w x e b b b y r c c c b n ",
"c c c b c c c o 3 P c c c n b c m b c c c c c c b b c b c c c c v m n n n n n X 5 P b b c c c b b f b x c c b v c j c c c c v v ",
"c c c b c c c o 3 J c c b x c c c m g c c c c c b b x c c c c c b b n n n n x o 3 I m b c c c c n c c c c c b v c x c c c v c c ",
"c c m m c c c o ; P c c c c c c c c c c c c c c b c c c c c c c c n n n n n n # 3 P c c c c c b c c c c c c b c c c c c c c c c ",
"c c n n c c c X : A l c c c c c c c e c c c c c c c c c c c b c m n n n b c n @ 3 I n c c c c c c c c c c c c c c c c c c c c c ",
"b c x c c c c X ; F c c b c c c c c f c c c c c c c c c c c c c x n n b n c c o 3 I c c c c c c c c c c c c c c c c c c x c c c ",
"c c c c c c c X 3 P l b b c c c c c c c f c c c c c c c c c b c n n n b v b c o 3 L c c c c c c c c c c c c c i c c c v b b v c ",
"c c c c c c c o 3 I b m c c c c c c c j c c c c c c c c c c c c b c b c b b c @ 3 P c c s c c c c c c c c c c x e c e m b b c c ",
"c c c c c c c o 3 L c c n c c c c b c c c c c c c c c c c c c c c n v c c b c o 3 P c c a c c c c c c c c c c e 9 c b c c b c c ",
"c c b c n c b @ 4 L n c c v c c x v c v v c c c c c c c c c b c v c c c v v c # 3 P c g a a c c c c c c c c c b 1 q 1 l c b c c ",
"c c b c c n n @ 3 P b c n b c n n b v n n b n c c c c c c v b c c b n n m n b $ 7 U n b c x l v c c c b x m v 9 b c v m m m m b ",
"@ $ $ $ $ @ $ $ 5 5 $ $ $ $ $ # $ = $ $ @ = # o o @ o @ @ $ # @ # @ $ $ $ $ $ $ 5 6 $ # o # # @ o o o # o $ $ $ o @ $ $ $ $ $ # ",
"6 3 5 4 5 6 5 5 5 5 5 5 5 5 5 4 3 3 4 4 3 4 3 6 3 3 3 3 3 5 3 6 3 2 5 5 5 5 5 5 5 5 6 6 3 3 3 3 3 3 6 3 3 6 2 6 6 3 5 5 5 5 5 7 ",
"3 P I L I I L U U U U U U U U 4 4 P P P P I P J P P P P P I P 2 3 I U U U P U P I I L P P P P 3 3 P P P P J P J L P U U U U U 6 ",
"3 L v b x b b c c m n n n m m = 5 U c c c c c c c h c c c c b @ 3 L n n c b b c c b b v c c b o 3 P c c c c c c n b k n n z n @ ",
"3 P v b x c b c c n n n b c n $ 3 L n n c c c c c c k c c c c o 3 Z b n x b c b c n c b b c b @ 3 P c c c c c c c c b a n c n o ",
"3 P c c v c m b m b n n m x c o 3 I b c c c c c h a c c c c c o 3 P h g f b c c c c c c c c c @ 3 P c c c c c c h c s a c c c @ ",
"3 I c c v b b c l n l b c c c o 3 P c a h c w j r , c c c c c o 3 G a s c b c c c c c c c c v o 3 P c c c c c c h a a g h c c o ",
"3 P b c b c c b l k g c b c c o 3 P c a e y y w i , k c c c c X : A a a h c c c c c c c c c c o 3 P b b v c c a g a h s b c c o ",
"3 P c v b v v b k s l l c c c @ 3 P c r t t e r e q b b c c b o 3 G a a g c c n c c c c m c c # 3 P c n m c c h g h a a c c c @ ",
"3 P c c c c c g f z c m m b c o 3 P c c r c c w c n v n m b m o ; J a c b c c c c c c n b c c @ 3 P c c b m c c b c c l c c c o ",
"3 P c c c c c c b l m m m c c = 6 I m c c c c c c c v b x n b o 3 F g c l c m c c b c b v b c o 3 P c c n c c c c g c c c c c o ",
"3 P c c c c c c c c m b m c m o 3 Y n m m c c c c c l c b n v # 3 P a k l n b b v c c b c c c o 3 P c c c c c c c c c c c c c @ ",
"3 P c c x l x c c c c b m m m # 8 P x n c c c c c c c c c c v @ 3 A a k g c c l c c v b c v c @ 3 P c c c c c c c c c c c c c o ",
"3 P c g c k h l c c c b v b m # 8 Y n x c c c c c c c c c x n # 3 P c x h t a c k c c b c c c o 3 P c c c c c c c c c c c c c o ",
"3 P s a l j c c c c c c m m m = 7 Y m c c c c c c c c c c c n o 3 P c c r a c c x c c c c c c o 3 P c x c c c c c c c c c c c @ ",
"3 P h a r w a c c c c c b b x @ 8 U c c c c c c c c c c l c n o 2 P l c b w r k w c g c c c c @ 3 P w c c c c c c c c c c c c o ",
"> ; X X X   @ o o @ o @ o o o * 4 5 @ o o o o o @ o @ @ @ o o X 3 3 o o       . o o @ o o @ o X ; 3   o o o o # o o X @ o o o o ",
"; : > + O + > 3 3 3 3 3 3 3 3 3 3 6 6 6 8 6 6 3 6 3 3 : ; : & O > 3 2 6 > 3 O - O 3 6 6 3 3 : 3 > ; O O O : > 6 > & - 3 3 3 3 3 ",
"; D D D M V P P P P P P P U P P Y U L Y P P P P J P P P P G G & + P U J P U D B M L P U P P P P F M K M M G I G N A G P P P P 4 ",
": A a c f c c c c c c c c m b b x c c b c c c n n c c c c b c o 2 P x c n n b h t v x c v c c c h s c j e c a b x c c c c c c # ",
"3 J c c c c c c c c c c b x c c b v c c c c c c c c c c c c c o 4 Y n m n n m m x c c x b c c c c c c c c y x b c c c c c c c $ ",
"3 P b n c c c c c c c c b c c b b c c c c c c c c c c c c c c o 6 U n n n n n n c c c c c c c b c c c c c x c c v c c c c c c @ ",
"3 P m c b n c c h c c c b c c c c a c c c c c c c c c c c c c @ 2 U n n n n n z c c c c c c c c c c c c c c c c c c c c c c c o ",
"3 P c m c c c c b a l c c c c c c c r c e c c c c c c c c c c # 3 L n n c c c v n c c c c c c c c c c c c c c c c c c c c c c o ",
"3 U c x c c c a l x c c c c c c c x x a j c c c c c c c c c c o 4 U v c n n c n x c b c c c c c c c c c c c c c c c c c c c b @ ",
"3 P c b c c c h c c v x c c c c c c w j c c c c c c c c c c c o 5 I c n n c v c c b c c c c c c c c c c c c c c k c c c c n n o ",
"3 P c c c c c b c x n v c c c c c c c c c c c c c c c c c c c @ 6 P v n n c c c c c c c a c c c c c c c c c c c c b i v b v c o ",
"3 P v c c c c c c c c c c c v c v c c c c c c c c c c c c c c $ 3 P b c c b c c c c c c k f c v c c c c c c c c w e 9 v c v b @ ",
"3 P b v c c b c c c v c c c c b c b c c c c c c c c c c c c c # 3 P v c c c n c c c b h g a a c c c c c b c c t l u 9 b c v c o ",
"3 I b n n m b n n b n b n v m b v c n c m b c c c c c c x b n @ 3 L n c n c b c b m b b b a c c c c n c b c c v s a c m m b b @ ",
"3 P b n n n b b b m n m v n n m b n n b n b c c c c c c b m x @ 3 P n v n m m c m n v m v g v b c c c c b b n n b x m n n m m $ ",
"3 P b n n x m n m n n n n n n c c v n b c c c c c c c c b c c # 6 U n m n n n n n x b c b c c b c c c c n b c n b c n n n n n $ ",
"3 3 o o $ $ $ $ $ $ $ $ $ $ # $ # # $ @ $ # @ o o o o @ @ o o o 3 5 $ $ $ $ $ $ $ o # o o o # @ o o o # o @ @ o @ $ # $ $ $ $ $ "
};
