/* XPM */
static char *_728_59342b990958c1b20c8df605b8a63e85a1dc9a419f19e0ee65afd0f0eb0cdc23[] = {
/* columns rows colors chars-per-pixel */
"64 64 104 2 ",
"   c #3E2418",
".  c #3D2B1C",
"X  c #3D331B",
"o  c #40271B",
"O  c #442D1B",
"+  c #492E1C",
"@  c #453E16",
"#  c #4A3B16",
"$  c #45331C",
"%  c #4C331C",
"&  c #463A1B",
"*  c #4C3A1C",
"=  c #53351C",
"-  c #59371B",
";  c #543B1D",
":  c #5B3B1D",
">  c #623E1D",
",  c #463320",
"<  c #4D3620",
"1  c #423920",
"2  c #4E3B20",
"3  c #513720",
"4  c #533C21",
"5  c #5C3D20",
"6  c #613F20",
"7  c #4F5A0D",
"8  c #50580E",
"9  c #4C4415",
"0  c #4C4A13",
"q  c #4C421B",
"w  c #524717",
"e  c #544C15",
"r  c #5C4E16",
"t  c #54421D",
"y  c #5C431D",
"u  c #544B19",
"i  c #5B4B1D",
"p  c #4E5214",
"a  c #545513",
"s  c #5A5417",
"d  c #545B11",
"f  c #5B5C12",
"g  c #545118",
"h  c #5D541C",
"j  c #64421E",
"k  c #6A441E",
"l  c #644A1D",
"z  c #6C4A1D",
"x  c #71461E",
"c  c #74491E",
"v  c #7B4B1E",
"b  c #655517",
"n  c #625D12",
"m  c #65521B",
"M  c #77521D",
"N  c #55600E",
"B  c #5D6210",
"V  c #534120",
"C  c #5B4321",
"Z  c #5D4820",
"A  c #5D5020",
"S  c #644320",
"D  c #6A4521",
"F  c #654C21",
"G  c #6C4B21",
"H  c #614B28",
"J  c #6A4D2A",
"K  c #714720",
"L  c #744B21",
"P  c #7B4C21",
"I  c #6C5023",
"U  c #6B5229",
"Y  c #7B5321",
"T  c #72522D",
"R  c #704F30",
"E  c #735430",
"W  c #7A5B33",
"Q  c #83531F",
"!  c #8D561F",
"~  c #935C1F",
"^  c #9A5E1F",
"/  c #804F23",
"(  c #845222",
")  c #8B5522",
"_  c #8B5823",
"`  c #915725",
"'  c #945B24",
"]  c #9A5B22",
"[  c #845F34",
"{  c #805C39",
"}  c #916020",
"|  c #876038",
" . c #8C623B",
".. c #986738",
"X. c #AA6525",
"o. c #A96826",
"O. c #B16823",
"+. c #8D6641",
"@. c #956C44",
"#. c #9E6F43",
"$. c #9E7345",
"%. c #A07444",
"&. c #A5774D",
"*. c #A4784C",
/* pixels */
": : : : - - > - : > j : : 4 t ; @ X & & & & & * $ , % $ O O O O O O % = : : > P k : c k k j y : # = % j x k > > > > > : j D > 5 ",
"6 D 6 5 : : > > : - ; % * t w w X X $ & & & & & $ $ $ , O O O O O . = : - : k P P c ^ ' y j y y - $ $ v v c > 6 > > - 3 = 5 5 > ",
"/ > 6 K > : > 5 : : # % t t w 0 0 0 & & & $ @ & $ $ $ + $ O + % O O : : k j y D : z x ( - ; y - > # $ > P k : > > = = = - : : - ",
"/ K > 6 j S S y # ; = t t t q 0 0 0 9 , & $ & , $ % O $ O $ O O y k : k Q ( k : k D j 3 - - - y : - x x D D j ; % % , = = - - - ",
"6 : : - > S S S q * 2 C V 5 A g p p 7 & & % & % % % + O % O O = k k j v M c = = F S 5 - ; = c v M k v > v > 3 : * < , % = : - : ",
"5 : : : L L k k V * * C C C A A p 7 q , % $ $ % $ + $ O O % $ O k v - = - = = = = 5 5 - $ O : v v c v v > - ; ; ; % $ $ $ 5 5 : ",
"6 x L x x v k ; 4 * q V W W A A 9 9 $ + $ % $ $ + O O   O O O $ v v : = = = = - : : - + O . + v Q Q v > > > : : : : $ & & : : 5 ",
"6 K x L L x $ % * 2 q V W W Z Z 9 9 + $ O O O O O O $ O   O O c v c > = = : - = : : - # # $ b v v > v - - > = + : - $ $ K 6 5 > ",
"x L c - k : O % * * * 1 H U Z i 1 1 , $ + O O O + O > > = O O > k G x > : : = : 5 : ; # $ & b b v r 7 9 < = % $ y > < ( ( - 6 6 ",
"k v c $ $ # O $ % & * & C Z Z G 1 1 , $ , $ > = = - 6 > > Q Q = ; K K G k : 5 5 5 5 - - & * b b # & 0 7 0 % : ) ) > S ] P $ 6 : ",
"j k k # * * % * % $ y D S y F i $ $ , , % , c > - - S 6 - > Q - j c G k # : : : 6 : : ; 9 0 # w & # & & $ 1 S ( ( K L ` < 2 5 : ",
"> > ; - : % * % * & l z l S y $ $ , $ $ $ + c c : t : 6 = - > c c c j - = * : y 5 : : w t q 9 # $ $ $ & X , $ v ) ( ` ` K < = = ",
": - = = : : ; # % C l z S j 2 & $ $ $ $ = P c j ; t ; w ; y y j y k y j y * ; : : 5 : ; ; % % % $ $ $ $ % + % = P ( ( ) 3 O % ; ",
"% O % % = t # % % Y Y k z : % 1 , $ O $ P P K ; - # * ; w y y y y ; y j y * = w % $ # % , % % % $ = + $ + + = % 5 3 / v % + = : ",
"O . + , $ = * : k c Y y X = = % $ % = D P P : 2 ; * # = # ; y y - < 3 < = # ; ; * + & $ $ % + + < = + + + + = 3 3 5 ! ` O $ O : ",
"O O O O % % * * z c P X X O + = 3 5 3 ( L $ & ; ; ; % # - # y y w = < 3 % t w ; = & + $ + + + + + + + + + + < 5 3 3 ` ! O O $ j ",
", . , , = = 3 ; / / / / o + + % = = D ( S & $ $ % # % % # * : t t ; : $ % * ; # % & = - % = + + O O + + + + + + + + k % $ = 6 : ",
"3 O , , = = 3 5 > / ` ` + o + + % ; C & 1 & $ $ $ $ # % # = * t : t * $ # % # % % % - : = = = $ + % + + + + + + + + % + < 6 5 = ",
"C = $ , : 3 - L 6 6 / > + = + > ' ( J 2 & 2 * : # & % * # # ; ; ; q * & & & $ % % # : : - - = + , $ + O 3 + + + + O % $ = S S 3 ",
"> = + = = D P ` / 6 > = = = = = ( ' ' } _ < F Y y % * * ; # ; q * * * $ $ & & % + $ ; : : = = + + % $ O + + + + + + $ $ ; 5 5 : ",
"> > = = D D / ` L : = = = = % < % ( M } } M Y M M * * w u u n n g * & & & % $ $ ; V J : : - = O + , O + O O = + % + < % $ 5 5 5 ",
": > = D 6 6 ( ` K = = + % = 3 < < = % + j t M M u 9 @ u g s n n q * & & & & * & ; t U T > > = + O = = + + O + + $ $ % $ < 6 6 > ",
"= , 3 = = v L - 5 = = = = = = % % % + $ - t y i 9 X q 0 w e u q 2 q @ * ; * & * 2 @.W  .> > = = - : : + + + + + + O $ 3 3 : > 5 ",
"> 3 3 = v P 6 5 = 5 = - = - = $ $ $ & & ; ; ; * @ q q 0 0 0 q q q * q % % $ * * +.&.&.#. .> > D > - - + + + o O O O o 2 : 4 : : ",
": = + - 5 3 5 - 3 = - : : - 5 3 = & 2 2 & * ; & * @ q q 0 9 q * < 2 * $ ; * & $ +.#... .J > k S : : = % = + O O   O o < : : 4 : ",
"= = = : 5 3 3 : = : 5 = - : 5 3 ; 2 2 & & $ w t @ q q q q 1 * 1 $ X 1 $ 2 < $ O O P _ 5 : = D F 5 3 : = - - = O O . % 3 : y 4 : ",
"= = = 5 = - - = = = : = - 5 - $ $ 1 1 * & @ w w ; q * q q 2 2 * X $ X $ $ 2 % + o S ` > - = P Y : : - = - > > = $ . % $ = ; * ; ",
"5 5 3 : 5 : = = - - = = : : : $ $ 2 q & w 9 t ; - ; t V q 2 1 2 & $ $ & $ * % $ O + - - - ( ( ( > > > S > j > > > = . + = O $ = ",
"= = - - = - = ; - - : k : : * 3 % * * & # 0 t * ; y w ; w % = $ O X O % $ 3 = % + = : - = = > k c x > k j D > x x > = > = $ % = ",
"= = - = - - : - - - : k * * 4 4 ; % & # q 0 * w 8 l w $ # + + + $ $ % + = 3 = = = - - = + = = - c v k j D D K / v x > > % O # = ",
"- = = = - j : - : : > j C D : V ; & & $ & q 0 a 8 l # X $ = 3 + % % + = = % 3 = = = + = = = = = D > > k D D k x / v x = = % % = ",
"- : = - # k k k S j : : k D 3 ; * & $ $ q & q a # + O O % = 3 + + + = = = 3 : = = = = = = = % = > k k k D D 6 > v / v % # = # : ",
"= : : = - > k G 6 6 , , 2 4 * = * * @ * 1 q 2 q 1 $ $ O + 3 5 P + + + = = = 3 = = + + - : : = - k > D D k j k z z L P K : 3 5 : ",
"5 - - : - - G F 5 . , , & * = # $ ; : z Z 2 q 2 2 1 $ , = = 6 P 3 + + + 3 = = = = = = = > 5 > > k D D K > > j z S D G P P D : 4 ",
"= : = j x k D D + . . O O < * . . ; j G G C q V C O + , = + + + + + O , = = 3 + = = = = > 6 > > > k D D k > j k j S G P P z S F ",
": - = > k = ; j S O O , X X . . ; z G I G G y j j O O o + 3 + + + + + = 3 = = O O = 3 3 > x / K D > k k l 8 k j * 2 y P P D k k ",
": = = < . . . S S $ $ < $ ,     = z z z F G > j y O O O O + + + + + + # $ + % % = = = : G ] X.G > j j 8 7 7 s x y V X X C 2 * y ",
"% % y k * . X 5 : k 1 , o O %   O k k F k y j : % O O O O + + + + $ + O + + x > = 3 = > L X.X.o.] > y 8 7 7 s c D C & X $ * * * ",
"% y l k k . $ : k k G 5 O O - = S S z F S j > + O + O O + + + + % % + + + + v v / > - ( ] ] o.o.] j j e 8 b l z S : * & * * * % ",
"% l k l F . X M c k G K = + = = k D G z j - % O O O O + + + + + $ O % = % O - Q / / D ] ] ] o.o.( k ; 9 a b m m y * % * * @ * * ",
"# [ T k y O . M M M z j > + + S S j D j % = 5 ; : O O = + + + + + % % % % % = 6 L P K S v c & 2 t ; * q a s g e q & * * * * * 2 ",
"W *.*.* # # y y z M M j > j S D S l - = % % - 5 : % + + + + + o + + % % % : 3 5 6 P 6 S v c 1 1 2 V ; w a a e e * * @ # q q q & ",
"{ @.*.E * # y Z z M v z j S D G F - 3 5 = $ % = = + % % + , O + O + % $ % ; % = 5 + < + % G Z q V V * ; e l r 4 2 * q q V q q & ",
"R  .*.*.# * j l l c M M j > D D S 3 5 3 + % + % % % = % . O o o O % < < c c + + : , % % ; H g u V V & & i z z q V V * q q q C { ",
"O C *.G G y G z j y y c S j k : + % % = % % # + % + = O . O .     ^ Q k c c z z k : % $ C I i w & * 1 2 D z l s d u @ # & & O   ",
"C C k F z G F G F y y C y j y + % + % + % + % + % % % o $ = > . k ^ ( Y z z c z k y y * V F i X X X V F F < : l d d $ % , 2   O ",
"; 6 S j y S S I I z i C V y y t - # % # # + + # % % % % % % x x ~ ~ P c j j j y y C * & q Z l t X & $ * ; 2 ; e e w $ % $   . + ",
"+ : y S S j F I I z G z S t y t : # % # = - + + % = + % = % > x ~ ! c c k j y ; C : * * V i i S t q $ $ % % 0 0 # % % % % O . c ",
"y : l k : * C F G z z z l t : y y * # # % = % = t 5 K 6 j P P x v c c c v j y t t * * & V t l l t 2 & $ $ @ @ # O o + o + k v c ",
"k k F l * * 3 = j z l t t y t j j : * = # ; = y y G K > K P x x x - > x k C $ = ; * * # q Z F F i q * & * X X O O o + O - v v c ",
"k S j j * * : = y z z y t Z Z C ; # = # # j j j > > 6 6 > P x x - - 5 5 5 : % = % # * % * ; : c S * * * & $ @ % = - + o = k c k ",
"k t : 4 $ * ; ; y L I ; C y C Z t = # ; : k j j > > > 6 v v > . O o % 3 : $ % $ S %.C # # ; ; c c j < & & & $ % = 3 + o o k k k ",
"S ; 3 4 ; * * = ; V * 2 t V H l A y * * * t j ; - : : j o < : . . . . , = % $ $ E $.$.$.% = % ) _ ! P ) & & = = = = = = = > k > ",
"S S 5 ; = ; * = ; * * * q q Z F F Z t t t V 4 : = - ; y 2 + % = O . , o o & $ O C $.$.%.H % % < : ) ( ) P P > : + = 3 = - k k > ",
"6 6 S % % = = # * * 2 * q q q Z V t t t t ; * X X $ 4 t : % % $ 3 + , , % % = = % + E E $ & < < * 5 ) _ P v j > - - : - > : > 6 ",
"6 j j : % # = = % * 2 V q V V q t t t y t $ % & $ @ ; 3 * $ + $ = , 5 5 % % % % % % + & & & < % < % D ) z k > j - + > > : : > 6 ",
": : > j > # = % * * e d 8 N g f s V s u * * $ * & ; ; ; ; ; : t % = C 5 3 < % % % % = % & $ % + + + > v > 6 + + O + + = > > - > ",
"; j > > : y = = = = e N N N f f f s B B * * 2 q * ; ; ; ; ; : : ; ; 5 5 ; % + % % % % = 3 = % % = = x v 5 - + O o + o o + > : - ",
": 5 > Q Q Q Q = = ; : 8 N a u s s s B B d @ ; ; * ; ; V C y Z j = ; ; = < % = = = = = = 3 3 % % = = > / > 6 D : - + + + + y - : ",
": : k P Q Q x : : w ; # F i Z i s s a B f f * * * @ t i C C S y : % = ; : c > % % = % % 3 % % % % + = 3 : 6 j k > + + = = x c - ",
"S k c k k c : > > w # = A Z i i i & 9 0 f f m G S t : C C C j V ; ; : S c z L ; % % % % + # + # $ % = = = j k k k c x j x k M x ",
") ! / z x : > : : ; = * i u i t u & @ @ f B m G F 5 & & t V ; ; 4 5 = ; c c - = % + % % + = + + % + % % % % - c c x k : x k v v ",
"O.X.~ > j > > : : : # * ; ; u y u * 1 * e e * * * < $ * 3 3 * * : $ $ % + = - 3 > > - % = = + = % + % % % % - j j : y C k k Q c ",
"O.O.Q : - > - > y : ; ; ; # ; ; ; * * & & * * * $ $ $ * $ $ + O O . + $ + + 3 - - > Q % = + = = = % = % x / > j : : : : v ! ! : "
};
