/* XPM */
static char *result[] = {
/* columns rows colors chars-per-pixel */
"64 64 71 1 ",
"  c #01AEA1",
". c #00B2A6",
"X c #02B5A9",
"o c #09B7AC",
"O c #07B8AD",
"+ c #08B9AE",
"@ c #01C3B6",
"# c #01C6B9",
"$ c #03C9BC",
"% c #09C9BE",
"& c #01CEC3",
"* c #02D1C6",
"= c #04D4CB",
"- c #08D7CE",
"; c #06D8CF",
": c #0AD8CF",
"> c #17D2C8",
", c #1CD4CB",
"< c #0DD7D0",
"1 c #07D8D0",
"2 c #0CD9D2",
"3 c #14DCD4",
"4 c #1BDED6",
"5 c #1EDFD9",
"6 c #20D8CF",
"7 c #22DDD6",
"8 c #2BD9D2",
"9 c #22DFD9",
"0 c #33DDD6",
"q c #3DDED9",
"w c #25E0D9",
"e c #2AE1DB",
"r c #33E2DC",
"t c #3CE3DD",
"y c #45DFDB",
"u c #45E3DD",
"i c #4AE3DE",
"p c #51E4DF",
"a c #59E4DF",
"s c #44E5E0",
"d c #4DE5E1",
"f c #4EE8E4",
"g c #54E6E1",
"h c #5BE7E2",
"j c #54E9E5",
"k c #5CE9E4",
"l c #5CECE9",
"z c #61E7E3",
"x c #64E9E5",
"c c #6BEAE6",
"v c #64EDE9",
"b c #6CEDEA",
"n c #73EBE7",
"m c #79EBE7",
"M c #74EDEA",
"N c #7CEEEA",
"B c #75F0ED",
"V c #7CF0ED",
"C c #84EEEB",
"Z c #8BEEEC",
"A c #92EFEC",
"S c #98EFED",
"D c #83F0ED",
"F c #8CF0ED",
"G c #94F0EE",
"H c #9CF1EE",
"J c #9DF2F0",
"K c #A2F2EF",
"L c #A5F2F0",
"P c #ABF4F1",
"I c #B1F4F2",
/* pixels */
"    .                 ....XX.X.............XXX.XX.OXoXoOooooo...",
"    .X              ....XXXXXX.XX.........XXXXX.OOXOoooooooo.o..",
" .tsssssiidfpjkkvvvbnbbbnbnnMMMmMNMNmmCNCCCCDDCCCCDCCmCCCmNmmy..",
"oXsjjjlljlllvvbbbbMbMMMMMMNMNNNNNNNNNNCCDCFZFFZZZZZCCCCCNNmmmy. ",
"oXfjllllvlvvbbbBBBBBBBBBNNNVVNVNNCCVCVCCFZFFZAAZZZZCCNNmmnnnny..",
"oojvvvvvvbvvbbbBBBBBBVBVBVNVVNVCNVVCCCCCCZFFFAZZZZZCCCCNmnmnny..",
"oohvbvbvBvbbBBBBBBBVVVVVVVDVDVDDDCDCCFZCFZFGGGZAZZZCCCmmNmmnnq. ",
"XokbbBBbBBbbBBBBBVBBVVVVDDDDDDDDCDCDDCCZFFFFZFAZZZCCCmCmmnMnbq..",
"OOlbBBBBBBBBBBBBBVBVVVVDDDFFDFDFFDZFZDZZDZFZZZZZZZZCCCCmCNmCmq .",
"OOvBBBBBvBBBBBBBBVVVVDDFFDFFFFFFDFZDDFDZZZFCZZZAZZZCCCCCmCmmmy..",
"O+vBBBBBBBBBBBBBBVVVVDDFDFFFFFFFFZFFZZZZZCCZZZZZZCZCCCZCCCCCCy..",
"O+lbBBBBBBBBBBBBBVVVDDDFFFFFFFFFFZZFDZZZCZCCCZCZZZZCZCCZZCZCCy..",
"OOvMBBBBVBVBBBBBBVVVDDDDFFFFFFFFGFFFFFFZZDCZCZCZCZCCCCCCCCCCCi .",
"OobMBBBBBBBBBBBBBVVFDFFFFFFFFFFFGFGFFGFFZZCCCCZCCCZCCCCCZCCCCi..",
"++vBBBBBBBBMbBBBBVVDDDFFFFDFFFFFFFFGGGFFFCCCCCZCCCCCCCCCCCCCCi..",
"O+bVVVBBBBMBbBbBBVVDDDDDDDDFFFFFFGGFGFFGFFZZZCCZCCZCCCCCCCmCCy..",
"OObVVVBBBBbbbbbbMBBVDDDVDDDDDFFFFFGFFGFGZZZZCCCZZCZCCCCCCCCCCy  ",
"OOMVVVBMbbbvvvvvbMMNVDVDDVNDDDDFFFZFFAFFZZZZAAZCZZZZZCZCCCCCCq  ",
"O+MDDVBMbbvvvlvvvbMNVVCVVCNDDDDDFDZZFFAZZZZZCAZZZZZZZCZCCCCCZy  ",
"OOMCDVNBbcvkljkkvcbMNNVNNNVCCCDZDZZZZZZZZZAZZZAAZSZSAAZZCCCCCp. ",
"++BDDVVMbbvllkkkvcbMNNNNNNNCCDCZZZDZZZFZFFFAZZAZSZAAZAZZZCZCZy X",
"++MDVDVMbcvkkvzlxcbMMNMMNmNNVCDCDZZZZAZFFFAZACAAZSASAAAZZZCCCyX.",
"O+NDDDNBbbcxvxxxxvcMMMMMMMmNNDCCZDDZZZZZZAZFAAAASZSZAAAZZCZCCyX ",
"O+MDVVMMMMbbbccxxccMnnnMbbnMNNNCDZDZFCFZCZZCACCAZZZAZZZZZZCCNyXX",
"O+MCDVNBMMMMnbcxxccbMccbxbcbMmCCZDCCCCCCCCZCCCCCCCCCCCZCCCCCmy .",
"O+MDNVBNNNMMMnbxvcccccxzzzzxcnMmNCCNCCNCCNmCmCNCCmCCCCCCCCCmmy.X",
"O+NDVCVVNNNNMMncxvxxxxzkkkkzxbMmNNmNmnMnnnMmmnmmmmmnnnmmCmCmmq..",
"O+VDDDVVVVNMMnbcxxkxkkkhkhhkxccbMnncccxcczccnnMMnccczccnmmmmnq.X",
"O+DFDDDDVCNMMncxxhhhjjhhkhkkzxccccxxzhhhhhzzcnncccczzzxcnmmmcq.X",
"OODFFFDDDNNNMnbxxhghggjhkkkkzxxcxxxhggdgpghzzcncczzaghazzzccz0X ",
"O+ZGFFDDDNNMMncvxkkjggdgkkkkzzvxxkhdgyiidphhzcccczzagpaazcxxh8..",
"++FGFGFFCNnnnbccxzxhhggjhkhzvvxcxkhsissyidghzxcczzaappaazazhf8X ",
"++FGGGGGCNNnMnnnccczkppjkakvxvxxxhgdiusiipphhzxxxahaaaaazaapp7..",
"++GGJGGGCCNnMMMMnncxvpjakzvcccnccxhpiiidypaahzzzzzhaaaazxzzjf6..",
"++GJJJGGZCNmmNNNNnMcvaavvcnnMMMmncchgaggaaaahxxzcxcxzccccxxaa6..",
"++GGJJJJFCCNNNNNCBBcccccnMMmNCCNNNncxzzhzzczccnnnnnnnnmnnccxa6. ",
"++FJLJJJGZCVDDDCCCNMmMMmmDCCZZZZZZCCNmmmmmmmmCCCCCZZCCCCCNmnx8..",
"O+GJJJJJAFCCDDDFDCCCNDDCCZFAAGAAAAZZZCCCCZZZAAASAAGGAZZZCCNNc8..",
"++JJLLJJGGZFFDFFZAAZFGGGGHHHHHKHHHHSSSSSSKSKSSKSKKKKKSHHSZZCN8..",
"++JJLLLJJGAZGFFFGGSSHGHHJHHHKKKKKKKKKKKSKKKKKPKPKLKLKKKHSAZDn8..",
"++LLLLPPLJJJJJJJHHJJKKLLKKPKKPPPKPKPKPKKPPPKPPPPPPPPPLKHSZCNc8  ",
"++LLPPLPLLLJJJJJKKKKKLLLPKPPPPPPPPKPPKPPPKPPPPPPPPPPKLHSAZDmc6..",
"O+LLLPIPPPPPLLLLLLLLLLPPPIPPPPPPPPPPPPPKKPKPPKPPLPLKKHGAZmmvp, .",
"++PLPPIPIPIPPPPPPPPPPPLPPPIPPPPPPPPPPPPPPPKPPPKPLLLHHGFCNcxai>. ",
"++PPIPIIIPIIIIPPIPPPPPPIIIIIIIIPPPLPPPPPKPKPKPKKKKSAFCCMckput>. ",
"+#IPIPIIIIIIIIIIIIPPPPPIIIIPIPIIPPPLKPPLKKPKPKKKHGFZDmczjfute%. ",
"++IPPIIPIIIIIIIPPIPIIIIIIIIIPIPPPLPPPPKLPPKPKKSSGZCmbvjputrww%  ",
"++IIIIIIIIIIIPIIIIIIIIIIIIIPPPIPPPLPKKLLKKKKSKSSCmnxjpitrww43$  ",
"++IIPIPPIPPPIIIPIIIIIIIIIIIIPPIPPLLLLLKLKKHHSAZCmcxgstrww433:$  ",
"++IIIIPIPIIPPIIIIIIIIIIIIIIIPPPPLLLLLLKHKHHSAZCncadtrww4332;;$. ",
"++IIIIPPPPIPPIPIIIIIIIIIIIIIPPPLLLLLJJHHSSAACCnckitrw43322;;=@  ",
"++IPPPPPLPPPPPPIIIIIIIIIIIIIPPPLLLKKJHHGSZCCmnxhdtrw432;;;;;=@  ",
"++IILPLPLLLPPPPPIIIIIIIIIIPPPPPLLLHHHGSAZZmmcxhdtrw4422;=;===#. ",
"++IILPLLLLLLLPPIIPIIIIIIIIIIPLLLLKHHASZZNmncxjssre5432;;1===*@  ",
"++LPPLLLLLLLLPPPPIIIIIPIIIIPPLLLLHHHSZZCMmxzjstrew4322;;====*$  ",
"++PPLLLJJJJJJLLPPPPPPPPPIIIILLLKHHSSAZNmnxhdstrew43322;;=;==*@  ",
"OoPPLLHKJJHHKKKPPPKPPPLPPPPKKKLLHHSAZCNNxxdsrrew433322-;==*==#  ",
"OoKPKKHHHGHSHHHKKLLKLHLKHHKKHHHGGAAZCCnckgsqew5433<:--=====**#  ",
"OOPKKKHHHGHGHHHKKLKKLKLKKKKHKHSGGAZZCNncjdsre94432::-;===*=**@  ",
"XXKKKKHHGAAAASSSHHHHSHHHHSSSSSSAFZZCCNccgdre94323::===****&&&O  ",
"XXKKKHGGZAAZZZASAGGSSSGASAAZZZZCCCNNnnxkitew4321====****&&&$&@ .",
"X.aLHHHGAAZZAZAASGSHGSGAAZSZZZZCCNNMcckgutew432::===****&&&&&$  ",
"X.X.XXXX..X.....X.X.X.XXXX.XX.....XXXXXXXXXXXXXXX...XX...... ...",
".X.........X.....X.X..XXXX.XX.....XXXXXXXXXXX.X.XXX....... ... ."
};
