/* XPM */
static char *_1397_7f96f5dbb1dce83a0286d574069db9386aceedaa47e1a4ad96bda2137a074ab9[] = {
/* columns rows colors chars-per-pixel */
"64 64 102 2 ",
"   c #B98E00",
".  c #BA9300",
"X  c #BC9B00",
"o  c #BCA304",
"O  c #BFAC0B",
"+  c #BEB301",
"@  c #BFB803",
"#  c #BFBF1E",
"$  c #C09C00",
"%  c #C0A201",
"&  c #D7AD0E",
"*  c #C1B604",
"=  c #C1BA05",
"-  c #C0B40D",
";  c #C0AF10",
":  c #C2B613",
">  c #C2BC16",
",  c #C2B61D",
"<  c #C2BA1B",
"1  c #DAB414",
"2  c #DBB917",
"3  c #DAB719",
"4  c #DDBB1A",
"5  c #C1AE25",
"6  c #C1AF28",
"7  c #C2B522",
"8  c #C2BE24",
"9  c #C3BE2C",
"0  c #D8BD20",
"q  c #C3BE32",
"w  c #C2C11C",
"e  c #DBCE1A",
"r  c #DDD41E",
"t  c #C1C122",
"y  c #C2C22B",
"u  c #DBC123",
"i  c #DECD2C",
"p  c #DED524",
"a  c #DFD824",
"s  c #DFD42B",
"d  c #DED92A",
"f  c #C3C233",
"g  c #C3C13A",
"h  c #DED234",
"j  c #DFDB35",
"k  c #DFD63A",
"l  c #DEDB39",
"z  c #F6CC2D",
"x  c #E1DA25",
"c  c #E0D42F",
"v  c #F7CF30",
"b  c #E0D635",
"n  c #E0D935",
"m  c #E0D53B",
"M  c #E0DC3A",
"N  c #F7D333",
"B  c #F9D535",
"V  c #FBD837",
"C  c #F5D638",
"Z  c #F9D738",
"A  c #F6DB3D",
"S  c #FADC3B",
"D  c #F7EA36",
"F  c #F8EB37",
"G  c #FAED3B",
"H  c #FBF23D",
"J  c #DFCC44",
"K  c #DFDE42",
"L  c #DFD54A",
"P  c #E0CF40",
"I  c #E1D543",
"U  c #E0DC44",
"Y  c #E1DD4B",
"T  c #F7DE41",
"R  c #F8DF42",
"E  c #E1DF55",
"W  c #E1DF5A",
"Q  c #E0E146",
"!  c #E0E04D",
"~  c #F7E043",
"^  c #FAE344",
"/  c #FBEF41",
"(  c #FBE648",
")  c #FCEB4C",
"_  c #FDF445",
"`  c #FAFA44",
"'  c #FEF64B",
"]  c #FDF94C",
"[  c #E1E050",
"{  c #FCEE51",
"}  c #FEEE5C",
"|  c #FDF554",
" . c #FDFA54",
".. c #FDF559",
"X. c #FEFB5B",
"o. c #FDEC63",
"O. c #FEF564",
"+. c #FEFC64",
"@. c #FDF769",
"#. c #FEFC6B",
"$. c #FFFD73",
"%. c #FFFD78",
/* pixels */
"5 6 5 5 6 6 5 5 , 7 7 , 7 , 7 , 7 7 # # # # # # # # O # # # # # # , # # , , , 5 < < < < < < < < < < > < < < < : : : : : : - - : ",
"5 J J J P P J P m I m m m m m m k K k K m h k j h j j j l l h l k h k k h m m m m k M m m M m m n n b b b m b c b n b b c c c : ",
"6 J o.o.o.o.o.O.} } } $.................} .... . . . ...W  ... .} ..} ..| ..} | ........| | ..| '  .| | | | | | ' ' | _ ) _ c - ",
"6 J o.@.O.@.O.O.o.@.#.#.@...O...+............... ... ... . ...X. ...| | ..} ..| | ..| | | | |  . .| | | | ' ' ' ' | ) _ _ _ c = ",
"q L $.#.@.O.O.O.O.#.O.+.#.$...O...#.+.X. .X.X.+..... . ..... . . .......} ..| ..|  ...] | ]  .| | ]  .' ' ' | ' ' ' ' ` H H r @ ",
"f E #.#.#.#.@.O.@.O.#.@.#.O.+.+.+.#.+.X. . .+.X. .|  . . . .X. .........| .. . .|  .| |  .| ] ' ] | ] ' ' ' ' ' ' _ _ H H H r @ ",
"f Y #.#.#.@.@.O.@.@.@.#.#.#.+.#.+.#.#. .X. .X.#.X.X. . .[  . . . . . ... ..... . . . .| | ]  .]  .] ' ' ' ' ' ' ' ` H _ H H r @ ",
"y E $.#.#.@.#.@.O.#.@.@.+.+.+.#.#.#.#. .+.X. .X. . . . .X. . .X.X. . .......| |  .|  . . . .| ] ' ' ' ' ' ' ' ' _ _ ` H H H p @ ",
"f [ $.#.#.#.$.#.+.X.#.+.#.X.#.$.#.+.+.+.X.X. . . . . . . . . . . . .X. ... . . .{  .] ] | ] ' ] ' ' ` _ ' ' ' _ _ _ ` _ _ H x w ",
"f [ #.#.$.#.#.+.#.X.+.#.+.X.#.X.#.#.X.X.X.+. . . .] ]  . . . .X.[ X. . . ... . .` ....` ` ` ] ' ] ] ' ' ` ` ` _ _ _ _ H ` H r = ",
"f ! #.$.#.+.+.+.X.#.#.X.+.+.+.X. .X.X.X.X. . .] ] ] ]  . . . . . . .X. ... . .] ] | | ] ' ' ` _ ' ' _ ` ` ' _ ` H _ _ _ _ ` x = ",
"f ! #.#.+.#.+.#.+.#.X.+.+. .X.+.X.X. .#. . . .] ]  . . .]  .]  . .X...X.| ..]  .] ` ..] ` ' ' ' ' ` ' ` _ ' ` _ ` _ ` _ _ H x = ",
"f ! +.+.+.+.+.X.+. .+. .X.X.]  .X.+.X.X.X. . .] ]  . . .]  .]  . .X...X. ... .' | ]  .' ' ' ' ' ` ' _ ' _ _ _ _ ` _ _ _ _ _ x w ",
"w Q X.X.+.+.#.#.X. .X. . . . .] X.] ] +.+.]  . .]  . .]  .]  . . . . .X. . ... . .]  .' ' ' ` ' ' ` _ _ ' _ _ _ _ ` _ _ ` _ r = ",
"y M X.X.X.X.+.X. .] ] ]  .] ] ] ]  . . .]  .] ] ] ] ]  .]  . .]  . . . . . ... ...|  .' ' ] ' ` ' ' _ _ ` ' ` _ _ _ _ _ _ ' x = ",
"w M X. .X.+.X.X.]  . .] ] ]  .] ] ] ] ]  .] ]  .]  .] ]  .]  . . . . .....X.X. . . .`  .' ' ` ' ` ` ` ` ` ` _ _ _ _ _ _ _ ` a = ",
"w M  .+.X.X.X. . . .] ] ] ] ] ] ] ] ] ] ] ] ] ] ] ] ] ]  .]  . . . . .| .... . .X.] ' ] ' ` ` { ' ' _ _ ` _ ' _ _ _ ' ` _ _ s @ ",
"w M X.X.+.#. .X.X.] ] ] ] ] ] ] ] ] ] `  .] ] ] ] ] ] ] ]  .]  . .]  . . . . . .' '  .' ' ' ' ` _ ` ' ` ' _ ` _ _ ` _ _ _ ` h @ ",
"w D  .X.+.X. . .` ] ] ]  .` ] ] ] ] ] ] ] ' ] ] ] ] ] ]  .]  . .] ] ]  . .|  .| '  .] ' ' ' ] ] ' ' ` ' _ _ ' ` ' _ _ _ _ ` d @ ",
"w j  . .X. . .] ' ' ] ] ] ] ` ' ` ] ` ] ` ` ] ] ] ] ' ] ] ]  .] ]  . . .|  . .' ] | ' ] ' ] ` ] ' ` _ _ ` ) ` ` ' ` _ ` ' ] j @ ",
"# l  .X.X.X. . .]  .]  ._ _ / / _ ' ` ' ' _ ` ' ' ` ' ' ] ] ] '  . . . . . .' ' ' ] ' ] ] ] ] | ] ` ] ] ` ] ` ] ) ` ' ` ` ' d @ ",
"# l  . . . .] ] | _ ..| _ ) _ _ _ _ ' _ ' _ ' ' ' ` ` ' ] ] ] ]  . . . . .'  . .] ] ] '  .` ` ` ] ] ] ] ` ] ] ` ' ' ` _ ' ` d # ",
"# j X. . . . . .' _ _ ' _ / / _ _ / _ ' ' _ _ _ ' ' ] ' ' ] ]  . .]  .]  . .]  .]  .] ] `  .` ` ] ] ] ` ] ] ] ] ` ' _ ` ` ] d @ ",
"w M  .X.X. . .] | _ _ ) _ / _ / / _ H _ _ _ _ _ ' ` ` ` ] ] ] ]  . .]  .' ]  .] ] ] ] ' `  .`  .] ] ] ] ` ] ` ] ' ` ' ` _ ] j @ ",
"w K  . . . . . . .` / ` ' ` _ _ _ / _ _ _ / ' ' _ ' ` ' ' ' ' ] ] ' ' ] ] ] ] ] `  .` ..` ` ` ` ] ` ] ` ] ] ] ] ` ` _ _ _ H p @ ",
"w K X. . .X.[  .`  .{ ' ' _ ' ' _ _ / _ _ _ ' _ _ _ ` ' ' ' ` ' ' ' ` ' ] ' ' ]  .`  .`  .` ` ` ` ` ` ` ` ` ` ` ' _ ` H / _ p @ ",
"# l  .X.X. . . .] ' ` _ _ _ _ ' ' ) _ ) _ _ _ ' _ _ _ ' ' _ ` ' ' ' ' ' ' ' ' _ `  .` ` ` ` ! ` ` ` ` ` ] ` ` ` ` ` ` _ _ _ p * ",
"# l  .X.X.X.]  . .' ' _ _ _ _ _ _ _ _ ' G _ _ _ / _ ' _ ' _ ' ' ` ' ' _ ' ] _ ` `  .` / ` ` ` ` H ` ` ` ] ` ` ` ` ` H _ _ _ p * ",
"# l X.X.X.X.]  .] ' ' ' ' _ _ _ ` ' ' ' | ) ) ' _ _ _ ' ' _ _ ' ' ' ' | ' ' _ _ ] ` ` ` ` ` H ` ` ` ` ` ` ` ` ` ` H _ H H _ p * ",
"t K X.X. . .] ] ] ] ` ' ' _ ' ' ' ' | _ _ _ _ / _ / ) / _ _ _ ' ' _ _ _ ' ` _ / / ` ` ` ` ` ` ` ` ` ` ` _ _ ` ` H H H H H H r * ",
"# K +.X.X. .[ ] ] ' ` ' ` ' ] ' ' ' _ ' _ / _ _ / _ _ _ _ / ) / _ / _ / _ _ _ _ ` H H ` ` H ` H ` ` _ ` _ _ _ ` ` H H H H F r * ",
"t K +.X.+. .]  .` ' ' ' ' | | | | ' _ / / | / _ _ ) / _ _ _ _ _ / _ _ / _ _ _ / ` H ` H ` ` ` ` H ` _ / H _ ` ` ` ` F H F F r + ",
"t U +.+.+.|  . .] ] ' | | ' +.X.| X.| | ..| _ _ / _ _ ) | ' ' _ / _ _ / / _ _ / / _ / ` ` / _ _ ` ` ' _ _ _ _ _ G _ G G G F e + ",
"8 U X.+.+.+.X.] ] ' ' X. . ...X.' ........| _ ) ) / _ ' | | ' / _ / / _ _ / _ _ / ` _ / H _ _ _ ' ' ` _ _ ' _ _ G G G G G F p + ",
"y U +.X.| X.' X.] | ' ] +.| +.| X.| +.' +.| _ / _ _ ' / / / / ' | .._ _ / _ / _ ` ` / ` _ ` G _ / _ ' / _ ) / / D F D F / G i + ",
"8 U +.X. .@. . .+.X. .] +.+.+.X.+.O.| _ ..X.| ' ' ' / ' / | / _ _ _ ' ) _ _ ) '  . ./ ` _ '  .' ' _ | ' / _ G G G F G G F _ s - ",
"9 U @.#.+.+...X.X. . .X.| #.+.+.X.+.+.#.+.| | _ +.| _ ) _  ..._ ' _ _ _ / _ |  . . . . . .] ]  . ._ '  . ._ _ G _ G / ' / _ s O ",
"9 Y +.#.+.X.X.+. . .'  .X.+.+.+.@.+.@.+.+.+.| | | +. .|  . .X..._ | _ ' _ | | ] X. . . .X. . .]  . .]  .] ' ' G G _ | ' ' ) s @ ",
"9 Y #.@.#.#.+.| X.X. .X.+.+.+.+.+.+.#.+.+.X.| _ | X.X.X. .X. .X.| X.X. .]  . . . .X.X. . .X. . .|  .X. .]  .' ' _ ) _ ' | ' j > ",
"q Y @.#.#.#.X.+.#.+.+. .+.+.#.+.+.+.+.+.O.+.X.+.X.+.+.X.+.X.X.+.+._ X.+.X.X.X.X.X. .X.X.X.X.X.X. .X. .X. .X. .' | ' '  .) ' s > ",
"9 E @.$.$.$.| @.#.$.+.X.X.+.@.#.#.$.+.#.+.+.+.X.+.#.+.+.+.+.+.+.+.X.+.+.+.+.X.X.X.X.X.X.+.X.X.X.X.X.X. .X.X.X.X.' | ' _ | ' i - ",
"9 Y $.$.$.$.$.$.$.$.$.#.#.+.#.$.#.#.#.#.@.+.+.+.+.#.+.#.+.+.#.+.+.+.+.+.+.+.+.X.X.X.X.X.X.X.X.X.X.X.X.X.X.X.X. .X.' | ) ) ) i : ",
"q E $.$.$.$.$.$.$.$.#.$.#.#.#.$.$.$.#.$.#.#.#.#.#.#.#.+.#.+.+.+.#.+.+.+.+.+.+.+.X.+.X.X.X.X.X.X.X.+.X...X.X.X.X.X.R ) ) ) ) i ; ",
"q W $.$.$.$.$.$.$.$.$.$.#.$.$.$.#.#.#.$.#.#.#.#.#.#.#.#.+.#.+.#.+.#.#.+.+.+.+.X.X.+.W X.X.+.X.X.X.X.X.| | X.X.X.| ' | ~ ( ~ i O ",
"q E $.$.$.$.%.$.$.%.$.$.$.$.$.$.#.$.$.$.$.$.$.#.$.$.#.#.#.#.+.#.#.+.#.+.+.+.+.+.+.X.+.X.X...X.+.X.X.X...{ { .. .} ~ ( ( ) ^ u o ",
"g W $.$.$.$.%.%.%.$.$.$.$.%.$.$.$.#.#.$.$.$.$.$.$.#.#.#.#.#.#.+.#.#.+.#.+.+.+.+.X.+.X.X...+.X.X.X.X.X... .{ ..) ( ( ~ ~ G R u o ",
"g W $.%.%.%.$.%.%.$.$.$.$.%.%.$.$.$.$.%.$.$.$.#.#.$.#.#.#.#.#.#.#.#.#.+.+.@.+.+.+.+.X...X.....X.X.....| { { { ~ ( ~ T R ^ ^ 0 o ",
"g W %.%.%.%.%.$.%.$.%.%.$.$.$.$.$.$.$.$.$.$.#.$.$.#.#.#.#.#.#.$.#.+.+.#.#.+.+.@.+.+.+...{ .. .....| | ..{ { ) ) ( ~ T T T ^ u o ",
"g W %.%.%.%.%.%.%.%.$.%.$.$.$.$.$.$.$.$.$.$.$.#.#.#.$.#.#.$.#.#.#.#.+.#.#.@.+.#.+.+.+.+.{ | | X.X.{ | } { ) ) { ) ~ ~ A T T 0 o ",
"g W %.%.%.%.$.%.%.$.%.$.$.%.$.%.$.$.$.$.$.$.$.$.$.$.#.$.#.#.#.#.#.#.@.@.+.#.#.@.+.O.+.+.| X.....| ..| ) ) ) ~ ~ ) ( ~ ~ A A 0 X ",
"q W %.%.%.%.%.%.$.%.$.%.$.$.$.%.$.$.$.$.$.$.$.$.$.$.#.$.$.#.#.#.#.#.#.#.@.#.@.+.O.+.X.............| { ) ( A ( ^ A ~ A A A ~ 0 o ",
"q W %.%.$.$.$.$.$.$.$.$.$.$.$.$.$.#.#.$.#.$.$.$.$.$.#.#.#.#.#.@.#.+.@.@.+.+.O.@.+.+.O...X.( ..{ | ) | ( ~ A A A A A A A T A 3 X ",
"g W $.$.#.$.$.$.$.%.$.#.$.%.%.%.$.$.#.$.$.#.$.$.$.$.$.#.#.#.#.@.#.@.+.#.+.O.{ ..| ....R ) ^ ) | { { { ^ ^ S A A A C A A T C 4 X ",
"g W $.$.#.#.@.$.#.$.#.#.$.W $.$.#.$.$.#.$.#.+.#.$.#.#.#.#.#.#.+.+.@.O.O.O.O.{ ....} | } R ^ ^ ^ ) ) ) ) ~ A A C C A C A A C 3 X ",
"g E $.$.#.#.+.#.$.$.#.$.$.$.#.$.+.+.#.#.#.+.+.#.#.#.#.$.#.+.+.+.@.+.@.+.O...} { ..{ | ) ( ( ( ) R S ^ ) S R C A C C C A C A 3 X ",
"g E #.+.#.#.#.#.W $.$.$.#.#.$.@.#.+.$.#.#.#.#.+.+.#.#.#.#.#.+.+.+.@.@.......{ { { { } ) ) ^ ( ( ^ S S S S G A A C C C C C C 3 . ",
"f E #.+.+.+.+.+.$.$.#.#.#.#.$.+.+.#.+.+.+.#.+.+.+.+.+.+.X.+.+.+.+.+.+.O.....{ { | ) { ^ ( ( ^ ) ^ R R D V D S S A C A B N Z 3 . ",
"# ! +.+.+.+.@.+.+.X.#.#.@.@.+. .+.+.+.+.+.+.+.+.+.+.+.+.X.+.+.+.+...+.+.........} ) ( ( ^ ^ ( ^ S R S S N A A N A N V B V C 3 X ",
"y Q X.+.+.[  . .[  .X.X...X. .X.+.+.+.+.+.+.+.+.+.+.+.X.+.+.+...+.X...X.O...[ X.) ) ) ) ^ ^ D S S S S Z N N B N N Z Z V B B 2 X ",
"t K X.X.X.X. . . . .X.X.X.X.X.X.+.| +.X.+.+.#.#.+.+.+.+.X...+.X.X.O.W X.......{ { ( ^ ^ ^ ^ R R S S S B N N N v z N N B V B 3 X ",
"# Q  .X. . . . . .|  .|  . . ... .X.+.X.+.X.X.+.X.+.X.| ..| | ..| ........{ ) { ) ) ^ ^ ) S S S S V V B v N N V v B z z v v 1 $ ",
"# K X. . . . . .X..... . .{ X.X.|  .|  .| | | X.X.| | | | | | | | | { { ) { { ) ^ ) ( S S S S S V V B B B N V B v v z z v z & $ ",
"w l j j l j l j j j j j j l l l m n n n n M M M n n n m n n m h h k h h h h h i u i 4 4 4 2 4 4 4 4 2 2 3 3 3 1 & & & & & & &   ",
"w # > # @ # # # @ # @ # # O # # > > < > > > < > > : > < : < < , # O # # O O # O : % % $ $ $ $ $ $ $ $ $ X X . .                 "
};
