/* XPM */
static char *_992_97e4db6a6e61d310b8e03d11d2f0f5790bd49b40b3f7fc297daebbeb0dc08bda[] = {
/* columns rows colors chars-per-pixel */
"64 64 33 1 ",
"  c #5F2719",
". c #642D1E",
"X c #662F20",
"o c #673021",
"O c #693222",
"+ c #6E3728",
"@ c #6E3828",
"# c #743D2E",
"$ c #763F30",
"% c #783F31",
"& c #774031",
"* c #7C4536",
"= c #7E4837",
"- c #7E4738",
"; c #7F4839",
": c #804739",
"> c #814A3B",
", c #864F41",
"< c #875141",
"1 c #8C5546",
"2 c #8E5748",
"3 c #8F5849",
"4 c #915A4B",
"5 c #965F50",
"6 c #986151",
"7 c #9A8682",
"8 c #9E8B86",
"9 c #9F8D88",
"0 c #A08C87",
"q c #A18E89",
"w c #A3918B",
"e c #A89791",
"r c #AB9993",
/* pixels */
"44443443443434-8443334315134233444343444333343*93343443344633434",
"*<>>>>>>>>>;,*O83->,-,,>;&>>*-->>>,>>,,-;<>>>-O83;;<->>,->>>>>*>",
"*>*****--****&.73;*-*-$**--***&-***$**>***-**&O73>-**=<***&-***>",
"*******$***--&o05>***=*=*-*****-*-*-$**-;****$O84>****>**=*=*-**",
"*>*******-***$O83>*-**&-****-*=****#**=******&O73>*****-&**-**-*",
"*=****-*-****#X83>-****-****-**=*==*****-;**;&O84,***-***-*;****",
"******-*******O84>-*=****-=-*-*-*$=&***>*-&**&O83>-*****;**=--**",
"*****-%*******O03;**&-=******;*-******-=**&***O83>*$***-*-******",
"*=-****>*****$O83>-*&-**;***-;***=;**%&$*****$O84=*&=*&*-**-***;",
"*****&*-**>--$+83>*=>=******>***=*;----**--**$O72;***=-*-**-***-",
"*>*&****-****#.84>**-***-*****$****-*=**-**--&X82;**>=***-*&****",
">=**=*****=***Xr2********;*****-***%*--*-***&#O73>*-=*********%=",
"-********--*=*o81*;=****->-*=-&***--*****-=-*$O83>-***=**&***>;*",
"$&&###$&#&&$*$O81*&&&&*#$$*$&&&$&$#$$$$&&&&@&&O04-#$&&&&&*&$&&%$",
"+OOOOOOOoOO.OOO8*OOO.+O.o+ +oOX+XOXoOOXOOOOOOXOr$XXoOOOOXOOOXOOO",
"807808888888800888800887w8888888788800088808q7088q78q808888878q8",
"5233<3333343433313333323443445=w424444434332333334334442244443*0",
"3&*,,*,;>>><,>>->><;>1;>>>>>,>O84>>>>>>>;>;,;;,;->;,>>>>>>>>>*O8",
"6;&;;%*;****=*****-**$***&*-**.q2>-*****-%-&-***-*-*-*-******&O7",
"2;**-*,-***********<***-*****$O04>*=**-**-*****-**************Ow",
"3>****---*************%***$*-$X82,**-$-****$*&-;*:**-*$***;**&O8",
"3>%*-$*****&***,**-***->******O74;******--$*-$**-***&***&*-**&O8",
"2-**;**-**=-***-*%*%*****-**-*O84>*******---*-***$=*-;---****&.0",
"3-***-%***>***-;***;**-**-=**$O84>***-****-**&*>=-*->***&****&o8",
"4;;:****<>*********;****-****&O84>**=*****$**-*-*******=*$*-*#O8",
"3>*-*******=*;**-***---**-*>-$O84>>**>*=***-;*;******->>*****$o0",
"4:*-**$**#*=*-**--*--*********Xw4>*:-***-***,***********$>&**$Oq",
"4>*-***-**>*--*************>*&X82:%**&****-**&*>=*=**&*****-**O7",
"3>********=-****-*;***$$-****$ow2>-***-***$*$*=;*******&**&*-&O8",
"4$$$$$&**$&&$$*&&&&&&$*$-$$*%*O81-&$*#$*$+%&&$$&$&&*&$**&#$&&&o8",
"-OOX+OOOOOOOOOOOOOX@OOo@XXXXXO+q*OOOOOOXOXOOOOOOOOOXooOOOOooOOO8",
"8q888888w00000880888w887088808887808808078788788887w88w788888887",
"35333533634333*833533433333355234242442344432<-84424423222242244",
">;>>>>>;;>;>>*+83,;;;>>>,>->;;>,>>>>>>->>>>>>*Ow4*->>>>>>>>>>>>>",
"%**=*>;****&-*O82>***=*******&*-***-****-$-*-&o71#-$#***-**>>*:>",
"*&;***>*&**=*&O83;***&*=-**;*******=*****&*&*$O02>*-*****-**#**-",
"*-****&&*;*-*&O74<***>*-**%;**;*****>****=&&*&ow4:***-********-*",
"**>-;********&ow3-*******$-**=*&***-******&-*$O75>>-**-*********",
"%---;***-;=**&Ow3>*****--****************-*-*&O82>**=>*********%",
"**-**********$O85>**********>*****%****%-**==$O85>--*********>**",
"*-**$*=******&O83;*:;*-*=**===****>*>*****=**&Xw4=**=>*********%",
"**-**=*-**$***O85>*-*******-******=*****&&=*$&o84>***=*=********",
">-*=*&*;***=**X74>*;-*-*****-***>****=********o84>=*************",
"***&-********#ow2-****-*>***=-*****-****-*-**<O04<*->>***>****:*",
">**=**-*-=-**&O83******-&*=********=*#***-***&@04-*=**&*&*=****>",
"&&-&$&&&&&*$*& 83*$$$%&**&&#&&&*&*&&&*&&&&#$&&O03*$*#*&#*&#**#&&",
"XOOOOOoOOOXOoOOw*OXOOOOOOo..+OOo.oOoOOOOOoOOOXO0$oXoooOXoooOOO.O",
"880w8008897799w888ww888888w80088880888088888w880888888e8w88w8808",
"345543253344412345223333444444=8444353154444434334443134424442:8",
"3;;;>>;;;>;;;>>>,;;*>;,>>>,>>*O82>>=>>;>>>>>,->>>*>>,-*>*:>>>*O0",
"5-*;****&****%****;***-******&o84>**--**-****-*-*$***-***>***=O0",
"3-**-&*********-;%--****=*--*&o72=*****-*-*****->$*****>*-***#O8",
"2>--**,************,**-&>>**-&.84>>*-*****>*-**=*>*******=***&O8",
"4=********$******;*;**>>**$**$.04,-***&-*****>*-$**>>********&O8",
"4>-*-*-**>*--*&-*%******=****#o82>****-**-=**-*>***-*>***=**=&X8",
"4;*****;****************-*--*&o84:*****>-**-***&******>*-=***&O8",
"5;****-**;*&***-;-*******>*;*&O84>*******;****&=&--**;>-*****$X0",
"3*$******-****-*****=********$O82*********;->***--***;*****-*$O0",
"3<*=*;*******&-****;*******-&$O84>-**>*******-**;;***-***-$**$O8",
"3=-*;;*;**--&;*****=*&*;>*-**#O84>**&#***&*;**;-***;***-***>*&O8",
"3;>=**&********;*=*-***=;-*-*=O83>****>***;*****;-;*-===*-*-*$X8",
"4*&*&$*$&%**&&&*$&&&$$$&&&$&&&Ow2*$&#$&$&&&&*&&$&&&%&-#$$&$&$+O8",
"*OOXXoOOOOOXOOOXoXOOoOoOoOoOOOO0*OO+OoOoOOXOOO+OOO+OOOX+XX@OXOO8",
"88wwqq88998788880788088w08080800w88888888887888888w8888088888780"
};
