/* XPM */
static char *_9289_a862746bd20ecf5dc26b2770ae3b771e112aa0fbfedd83f4d1706b0110afc384[] = {
/* columns rows colors chars-per-pixel */
"64 64 81 1 ",
"  c gray51",
". c gray52",
"X c #868686",
"o c gray53",
"O c #888888",
"+ c #898989",
"@ c gray54",
"# c #8B8B8B",
"$ c gray55",
"% c #8D8D8D",
"& c #8E8E8E",
"* c gray56",
"= c #909090",
"- c gray57",
"; c gray59",
": c #989898",
"> c #A0A0A0",
", c gray63",
"< c #A2A2A2",
"1 c #AAAAAA",
"2 c gray67",
"3 c #ACACAC",
"4 c gray68",
"5 c #AEAEAE",
"6 c #AFAFAF",
"7 c gray69",
"8 c #B1B1B1",
"9 c #B2B2B2",
"0 c gray70",
"q c #B4B4B4",
"w c gray71",
"e c #B6B6B6",
"r c #B7B7B7",
"t c gray72",
"y c #B9B9B9",
"u c gray",
"i c #C0C0C0",
"p c #C8C8C8",
"a c gray79",
"s c #CACACA",
"d c #D2D2D2",
"f c LightGray",
"g c gray83",
"h c #D5D5D5",
"j c gray84",
"k c #D7D7D7",
"l c #D8D8D8",
"z c gray85",
"x c #DADADA",
"c c gray86",
"v c gainsboro",
"b c #DDDDDD",
"n c gray87",
"m c #DFDFDF",
"M c gray88",
"N c #E1E1E1",
"B c #E6E6E6",
"V c gray91",
"C c #E9E9E9",
"Z c #EAEAEA",
"A c gray92",
"S c #ECECEC",
"D c gray93",
"F c #EEEEEE",
"G c #EFEFEF",
"H c gray94",
"J c #F1F1F1",
"K c gray95",
"L c #F3F3F3",
"P c #F4F4F4",
"I c gray96",
"U c #F6F6F6",
"Y c gray97",
"T c #F8F8F8",
"R c #F9F9F9",
"E c gray98",
"W c #FBFBFB",
"Q c gray99",
"! c #FDFDFD",
"~ c #FEFEFE",
"^ c white",
/* pixels */
"&&&&&&&&%%$$$$$$$$$$$$$$$$$$$$$%%&**===============*&$@++++OOooo",
"&eeeeeewwqqqqqqqqqqqqqqqqqqqqqwwerrtttttttttttttttrew0988877666o",
"&ennnnbbbvvvvvvvvvvvvvvvvvvvvbbnmmMMMMMMMMMMMMMMMmmbcxzzzzllkk5X",
"&ennnbbbvvvvvvvvvvvvvvvvvvvvbbnmmMMMMMMMMMMMMMMMMmnvxzzzzllkkj6o",
"3gQQQQQQQQ!!!~~^^^^^^^^^^^^^^^^^^^~~~EEEEEEEEEEEEEEEEEEEEEEEEEd1",
"<sKKKKKKKKLLLPPIIYYYYYTTTTTYYYYYYYPPPHHHHHHHHHHHHHHHHHHHHHHHHHp>",
":iVVVVVCCCZZZAADDDDDFFFFFDDDDDDDZZBBBBBBBBBBBBBBBBBBBBBBBBBBBBu;",
":iVVVVVCCCZZZAADDDDDFFFFFDDDDDDDZZBBBBBBBBBBBBBBBBBBBBBBBBBBBBu;",
";uBBBBBBBBBBBBBBBBBBBBBBBBBBBBBBBBBBBBBBBBBBBBBBBBBBBBBBBBBBBBu;",
";uBBBBBBBBBBBBBBBBBBBBBBBBBBBBBBBBBBBBBBBBBBBBBBBBBBBBBBBBBBBBu;",
"$qvvvvvvvvvvvvvvvvvvvvvvvvvvvvvvvvvvvvvvvvvvvvvvvvvvvvvvvvvvvvq$",
" 1dddddddddddddddddddddddddddddddddddddddddddddddddddddddddddd1 ",
"&wvvvvvccxxxxxxxxxxxxxxxxxxxxxcvbnnnnnnnnnnnnnnbcxlkkkkkjjhhhh4.",
"&ennnnbbvvvvvvvvvvvvvvvvvvvvbbnmMMMMMMMMMMMMMMmnbcxzzzllkkjjjj5X",
"&ennnnbbvvvvvvvvvvvvvvvvvvvbbnmMMMMMMMMMMMMMMmmbcxzzzzllkkjjjj5X",
"&ennnbbvvvvvvvvvvvvvvvvvvvbbnmmMMMMMMMMMMMMMMmnvxzzzzllkkjjjjj6o",
"6k^^^^^^^^^^^^^^^^^^^^^^^^^^^^^^^^^^^^^^^^EEEEEEEEEEEEEEEEEEEEd1",
"1dEEERRTTTTTTRRRRTTTRREEEEERRRRRRRRRRRRIIIHHHHHHHHHHHHHHHHHHHHp>",
">pHGGFFFFFGGGGGFFGGGHHHHHGGGGGGGGGGGGAABBBBBBBBBBBBBBBBBBBBBBBu;",
">pHGGFFFFFGGGGGFFGGGHHHHHGGGGGGGGGGGGAABBBBBBBBBBBBBBBBBBBBBBBu;",
";uBBBBBBBBBBBBBBBBBBBBBBBBBBBBBBBBBBBBBBBBBBBBBBBBBBBBBBBBBBBBu;",
";uBBBBBBBBBBBBBBBBBBBBBBBBBBBBBBBBBBBBBBBBBBBBBBBBBBBBBBBBBBBBu;",
"$qvvvvvvvvvvvvvvvvvvvvvvvvvvvvvvvvvvvvvvvvvvvvvvvvvvvvvvvvvvvvq$",
" 1dddddddddddddddddddddddddddddddddddddddddddddddddddddddddddd1 ",
"$0xxxxxxxxxxxxxxxxxxxzzxcbnnnnnnnnnnnnnnbcxlkkkkkkkkkkkkkkjjjk6o",
"$qvvvvvvvvvvvvvvvvvvvvvbmmMMMMMMMMMMMMMmnbcxzzzzzzzzzzzzlllllz8+",
"$qvvvvvvvvvvvvvvvvvcvvbnmMMMMMMMMMMMMMmmbcxzzzzzzzzzzzzzllllzz8+",
"$qvvvvvvvvvvvvvvvvccvvnmMMMMMMMMMMMMMMmnvxzzzzzzzzzzzzzllllzzz9@",
"6k^^^^^^^^^^^^^^^!!!!!!!!!!!!!!!!!QQQEEEEEEEEEEEEEEEEEEEEEEEEEd1",
"2fWWWEETTTTTTYYIILLLLLLLLLLLLLLLLLKKKHHHHHHHHHHHHHHHHHHHHHHHHHp>",
",aJHHFFFFFDDDAACCCCCCCCCCCCCCCCCVVBBBBBBBBBBBBBBBBBBBBBBBBBBBBu;",
",aJHHFFFFFDDDAACCCCCCCCCCCCCCCCCVVBBBBBBBBBBBBBBBBBBBBBBBBBBBBu;",
";uBBBBBBBBBBBBBBBBBBBBBBBBBBBBBBBBBBBBBBBBBBBBBBBBBBBBBBBBBBBBu;",
";uBBBBBBBBBBBBBBBBBBBBBBBBBBBBBBBBBBBBBBBBBBBBBBBBBBBBBBBBBBBBu;",
"$qvvvvvvvvvvvvvvvvvvvvvvvvvvvvvvvvvvvvvvvvvvvvvvvvvvvvvvvvvvvvq$",
" 1dddddddddddddddddddddddddddddddddddddddddddddddddddddddddddd1 ",
"&wvvvccxxxxxxxcvbnnnnnnnnnnbbvcccccccvvbbcxlkkkkkkkjjhhhhhhkkl8@",
"&ennnnbbvvvvvvbnmMMMMMMMMMMMmmnbbbbbbbnmmnbcxxzzzzzllkjjjjkklz9#",
"&ennnnbbvvvvvvvbnmMMMMMMMMMMMmmnbbbbbbnnmmnbvcxzzzzzllkjjjjkkl8@",
"&ennnnnbbvvvvvvbbmmMMMMMMMMMMMmnnbbbbbbnmmmnbvxzzzzzzlkkjjjjjk8@",
"6k^^^^^^^^^^^^^^^^^^^^^^^^^^^^^^^^^^^^^^^^^^^^^^^!!EEEEEEEEEEEd1",
"3gQQQQQ!!!!!!!!!!QQQQQQQQQQQQQRRUUUUUUUUUUUUUUUUULLHHHHHHHHHHHp>",
"<sKKKLLLLLLLLLLKKKKKKKKKKKKGGGSSSSSSSSSSSSSSSSSCCBBBBBBBBBBBBBu;",
"<sKKKLLLLLLLLLLKKKKKKKKKKKKGGGSSSSSSSSSSSSSSSSSCCBBBBBBBBBBBBBu;",
";uBBBBBBBBBBBBBBBBBBBBBBBBBBBBBBBBBBBBBBBBBBBBBBBBBBBBBBBBBBBBu;",
";uBBBBBBBBBBBBBBBBBBBBBBBBBBBBBBBBBBBBBBBBBBBBBBBBBBBBBBBBBBBBu;",
"$qvvvvvvvvvvvvvvvvvvvvvvvvvvvvvvvvvvvvvvvvvvvvvvvvvvvvvvvvvvvvq$",
" 1dddddddddddddddddddddddddddddddddddddddddddddddddddddddddddd1 ",
"$0xxxxxxxxxxxxxxxxxxxcbnmmmmmmmmnnnnnnbczkjjjjjjjjjjjjhhhhjkkk6o",
"$qvvvvvvvvvvvvvvvvvvvbnmMNNNNNNNNMMMMMmnvxzlllllllllllkkjkkllz8+",
"$qvvvvvvvvvvvvvvvvvvvvbnMMNNNNNNNMMMMMMmnvxzllllllllllkkkjkkll8+",
"$qvvvvvvvvvvvvvvvvvvvvbbmMNNNNNNNNMMMMMMmbczlllllllllllkkjjkkl8@",
"6k^^^^^^^^^^^^^^^^^^^^^^^^^^^^^^^^^^^^^~~~EEEEEEEEEEEEEEEEEEEEd1",
"3gQQQWWEEEEEERREEQQQQQQQQQQQQQQQWWEEETTPPPHHHHHHHHHHHHHHHHHHHHp>",
"<sKJJHHHHHGGGHHKKKKKKKKKKKKKKKJJHHFFFZZBBBBBBBBBBBBBBBBBBBBBBBu;",
"<sKJJHHHHHGGGHHKKKKKKKKKKKKKKKJJHHFFFZZBBBBBBBBBBBBBBBBBBBBBBBu;",
";uBBBBBBBBBBBBBBBBBBBBBBBBBBBBBBBBBBBBBBBBBBBBBBBBBBBBBBBBBBBBu;",
";uBBBBBBBBBBBBBBBBBBBBBBBBBBBBBBBBBBBBBBBBBBBBBBBBBBBBBBBBBBBBu;",
"$qvvvvvvvvvvvvvvvvvvvvvvvvvvvvvvvvvvvvvvvvvvvvvvvvvvvvvvvvvvvvq$",
" 1dddddddddddddddddddddddddddddddddddddddddddddddddddddddddddd1 ",
"$0xxxxxxxxxxxxxxxcbnmmmmmmmmmnnnnnnnbczkjjjjjjjjjjjjjhhhhjjkkk6o",
"$qvvvvvvvvvvvvvvvbnmMNNNNNNNNNMMMMMMmnvxzllllllllllllkkjkkkllz8+",
"$qqqqqqqqqqqqqqqqqwettyyyyyyyytttttttreq98777777777776665566778+",
"$$$$$$$$$$$$$$$$$$%%*=---------=======*%#+OOOOOOOOOOOOooXXXooOO+"
};
