/* XPM */
static char *_5188_ab3fda6379e90d80bb1118b8c251986a5179fccd9bd68fc45e8cbb66f6ee915f[] = {
/* columns rows colors chars-per-pixel */
"64 64 256 2 ",
"   c #82774A",
".  c #83774B",
"X  c #82784B",
"o  c #84794C",
"O  c #857A4C",
"+  c #867A4D",
"@  c #877B4E",
"#  c #887B4E",
"$  c #897B4F",
"%  c #8A7C50",
"&  c #8B7C51",
"*  c #8C7C50",
"=  c #8D7C51",
"-  c #8D7D52",
";  c #8C7E51",
":  c #8C7E52",
">  c #8E7E53",
",  c #8F7F54",
"<  c #8F8155",
"1  c #928456",
"2  c #908557",
"3  c #918657",
"4  c #918558",
"5  c #918758",
"6  c #928759",
"7  c #928859",
"8  c #93885A",
"9  c #94895A",
"0  c #95895B",
"q  c #968A5B",
"w  c #96895C",
"e  c #968A5C",
"r  c #978A5D",
"t  c #988B5C",
"y  c #988B5D",
"u  c #998C5D",
"i  c #998C5E",
"p  c #9A8C5F",
"a  c #9C8D5E",
"s  c #9C8D5F",
"d  c #9C8D60",
"f  c #9D8E60",
"g  c #9E8E61",
"h  c #9F9062",
"j  c #A29460",
"k  c #A49461",
"l  c #A59562",
"z  c #A69763",
"x  c #A79C6C",
"c  c #A99965",
"v  c #AA9A66",
"b  c #A99A67",
"n  c #AC9A67",
"m  c #A89C6D",
"M  c #A99E6E",
"N  c #AE9E69",
"B  c #AFA16A",
"V  c #B3A16B",
"C  c #B3A26C",
"Z  c #B5A36D",
"A  c #B5A36E",
"S  c #B5A46E",
"D  c #BAA96F",
"F  c #B0A272",
"G  c #B7A671",
"H  c #B8A670",
"J  c #B9A772",
"K  c #BBA973",
"L  c #BBAA70",
"P  c #BCAB71",
"I  c #BCAA74",
"U  c #BDAC72",
"Y  c #BEAE73",
"T  c #BFAE74",
"R  c #C0AC76",
"E  c #C1AD77",
"W  c #C0AF74",
"Q  c #C1AF75",
"!  c #C1AE77",
"~  c #C2AE78",
"^  c #C1B075",
"/  c #C2B076",
"(  c #C3B177",
")  c #C3B277",
"_  c #C4B176",
"`  c #C4B277",
"'  c #C5B278",
"]  c #C6B279",
"[  c #C7B37A",
"{  c #C7B479",
"}  c #C7B47A",
"|  c #C8B479",
" . c #C8B47A",
".. c #C8B57B",
"X. c #C9B67B",
"o. c #CAB77C",
"O. c #CCB77B",
"+. c #CCB77C",
"@. c #CBB87C",
"#. c #CDB87C",
"$. c #CDB87D",
"%. c #CEB97E",
"&. c #CEBA7E",
"*. c #CFBA7F",
"=. c #D0BA7E",
"-. c #D0BA7F",
";. c #D0BB80",
":. c #D1BC80",
">. c #D2BC81",
",. c #D2BD82",
"<. c #D3BE82",
"1. c #D4BE82",
"2. c #D5BE83",
"3. c #D5BF84",
"4. c #D6C084",
"5. c #D6C085",
"6. c #D7C186",
"7. c #D4C286",
"8. c #D4C287",
"9. c #D5C487",
"0. c #D7C588",
"q. c #D8C185",
"w. c #D8C285",
"e. c #D8C286",
"r. c #D9C387",
"t. c #DBC488",
"y. c #D8C689",
"u. c #D9C78A",
"i. c #DAC88B",
"p. c #DBC88C",
"a. c #DBC88D",
"s. c #DDC98D",
"d. c #DEC98E",
"f. c #DDCA8E",
"g. c #DECA8F",
"h. c #DFCC8F",
"j. c #E0CB8F",
"k. c #E1CC8F",
"l. c #E0CD90",
"z. c #E2CE91",
"x. c #E3CF92",
"c. c #E3D093",
"v. c #E4D194",
"b. c #E4D295",
"n. c #E4D396",
"m. c #E5D497",
"M. c #E5D699",
"N. c #E6D89A",
"B. c black",
"V. c black",
"C. c black",
"Z. c black",
"A. c black",
"S. c black",
"D. c black",
"F. c black",
"G. c black",
"H. c black",
"J. c black",
"K. c black",
"L. c black",
"P. c black",
"I. c black",
"U. c black",
"Y. c black",
"T. c black",
"R. c black",
"E. c black",
"W. c black",
"Q. c black",
"!. c black",
"~. c black",
"^. c black",
"/. c black",
"(. c black",
"). c black",
"_. c black",
"`. c black",
"'. c black",
"]. c black",
"[. c black",
"{. c black",
"}. c black",
"|. c black",
" X c black",
".X c black",
"XX c black",
"oX c black",
"OX c black",
"+X c black",
"@X c black",
"#X c black",
"$X c black",
"%X c black",
"&X c black",
"*X c black",
"=X c black",
"-X c black",
";X c black",
":X c black",
">X c black",
",X c black",
"<X c black",
"1X c black",
"2X c black",
"3X c black",
"4X c black",
"5X c black",
"6X c black",
"7X c black",
"8X c black",
"9X c black",
"0X c black",
"qX c black",
"wX c black",
"eX c black",
"rX c black",
"tX c black",
"yX c black",
"uX c black",
"iX c black",
"pX c black",
"aX c black",
"sX c black",
"dX c black",
"fX c black",
"gX c black",
"hX c black",
"jX c black",
"kX c black",
"lX c black",
"zX c black",
"xX c black",
"cX c black",
"vX c black",
"bX c black",
"nX c black",
"mX c black",
"MX c black",
"NX c black",
"BX c black",
"VX c black",
"CX c black",
"ZX c black",
"AX c black",
"SX c black",
"DX c black",
"FX c black",
"GX c black",
"HX c black",
"JX c black",
"KX c black",
"LX c black",
"PX c black",
"IX c black",
"UX c black",
/* pixels */
"b.n.N.v.g.a.l.9.7.f.7.9.7.7.g.7.b.N.7.v.m.N.N.N.m.N.c.c.y.7.c.f.7.7.7.7.x.z.N.N.N.N.N.N.M.N.N.N.N.N.N.N.N.N.M.m.N.M.7.M.M.7.M.X.",
"M.e.e.>.t.t.$.;.Y W / ^ ;.X.Q -.Y ] Y $.t.r.t.2.t.t.;.Y X.#.;.| Y Y Y W r.>. .t.t. .$.t.X.t.t.t.t.5.t.>.t.t.e.4.r.t.;.r.t.t.t.Y ",
"f.W W *.2.Y q.t.$.$.-.Y %.;.;.-.O.;.;.;.;.;.>.2.O.Y ^ _ | ^ Y Y Y Y Y Y ] ` Y Y W Y Y %.%.e.] Y Y Y Y } ;.;.;.;.;.q.;.t.q.t.t.Y ",
"f.+.^ Y ) Y ;.4.:.;.;.;.| O.X. .;.-.O.] ;.;.;.| ;.Y Y / Y | / Y $.' Y Y >.Y ` Y Y -.' ^ O.1.Y Y Y Y  . .-.;.;.' Y +. .;.W q.r.X.",
"k.$.t.4.r.Y t.( e.` Y Y W Y Y -.Y Y Y ^ Y ` ' ' #.;.' / Y ;.;.;.;.Q Y ;.o.X.t.W -.;.;.$.;.;.1.4.$.t.t.5.` Y ` Y ' Y Y %.;.e.;.Y ",
"n.t.t.t.t.t.6.5.w.W ^ Y / Y Y t.Y Y W @.Y Y W Y ;.;.2.;.;.;.2.>.r.;.e.q.t.2.t.r.;.q.t.;.;.;.2.;.r.t.t.X.Y ' t.Y W Y ;.#.;.1.q.Y ",
"M.t.t.t.t.5.G ~ e.e.t.t.t.o.Y e.t.{  .t.t.o.` t.r.r.q.>.t.t.4.e.t.t.1.t.t.e.t.t.1.q.t.t.-.;.t.1.q.t.t.t.t.$.;.t.t.Y t.2.Y t.r./ ",
"N.t.t.t.$.V 1 u ~ r.t.` t.2.t.t.r.t.t.t.t.t.t.4.t.q.t.Y t.t.t.q.>.t.t.r.e.t.t.t.2.r.X.t.t.t.t.^ ;.t.t.2.*.e.t.;.t.t.2.t.t.t.t.Y ",
"n.t.t.X.T j : 1 A Y ..X.Y ] W W Y / ` t.t.r.>.2.;./  .Y ` t.%.Y 1.t.t.t.Y Y ^ ^ } Y Y Y /  .Y / >.t.;.;.;.;.e.>.4.;.e.t.t.t.t.Y ",
"M.X.r.:.{ W j z ` X._ Y Y ` Y Y Y Y $.t.t.;.>.;.;.` { Y Y ' Y ..>.t.t.t.Y $.#.Y Y Y ;.Y  .| Y X./ ;.' ;.;.;.;.;.;.;.t.1.e.t.r.Y ",
"n.` Y 2.Y Y U Q ;.Y ;.X.;.X.` ;.' $. .{ / Y Y Y Y t.t.t.X.^ *.Y >.;.;.;.;.X.| ;.;.=.;.;.;.;.;.;./ Y ;.;.Y Y ;.;.;.1.1.;.;.>.1.Y ",
"N.W 2.Y Y Y *.;.O.;.e.q.;.;.;.;.;.-.*.Y Y X.*./ Y 2.$.W t.X.t.2./ ;.;.;.;.;.` ^ ;./ +.;.;.;.;.=.Y Y Y Y Y Y ;.t.;.;.e.;.;.4.>.Y ",
"N.t.o.t.t.o.t.t.>.;.4.;.;.;.;.$.;.r.t.t.^ 2.>.t.t./ t.t.Y 5.-.X.^ ` Y _ O.Y Y Y  .` ..` Y _ O.1.2.t.t.e./ t.;.t.t.;.r.t.r.t.t./ ",
"m.t.5.&.t.r.e.e.t.t.Y Y 1.;.Y %.;.t.t.t.t.t.t.t.t.$.' Y 2.Y $.t.4.{ ..^ / t.W Y Y X.;.{ ..^ / 2.4.t.t.%.$.Y t.t.4.t.>.t.t.t.t./ ",
"F e 9 5 5 9 5 p g 5 i i p h 7 q i 7 h h g h h h h h g h f i h p e h h 5 i g h r 5 0 9 5 2 3 g p 4 f 4 5 5 7 5 5 5 w s h h h h f ",
"X X + X <   o . % + O > < < X O + o < < < # < X + - # # + < < < , < < = < > % = > * X O X X X X X X X - X X X $ X X < < < < < > ",
"m.N.n.N.N.N.N.N.N.v.N.N.N.N.M.m.7.N.M.N.7.N.v.N.N.N.N.b.b.N.N.X.N.N.N.c.M.c.c.c.x.c.8.7.j.c.x.x.N.u.N.a.c.g.N.N.N.m.N.N.N.N.N.N.",
"2.t.W t.( t.Y t.X.t.t.t.t.e.<.r.e.2.t.5.X.X.t.t.t.t.e.Y r.t.t.Y N.t.t.4.Y ;.;.;.` ^ ;.;.$.;.;.2.t.t.t.t.t.t.t.t.^ 6.r.;.Y Y t.Y ",
"Y w.Y Y Y ` X.Y Y _ Y Y Y Y Y 2.Y Y 4. .>.Y _ Y Y Y Y ;.;.2.;.Y c.=.2.X. .Y Y ;.;.X.Y ' Y Y $.;.r.t.t.t.Y t.{ 3.t./ $.Y Y Y t.Y ",
"{ $.4./ W ;.Y Y Y W Y Y Y ^ %.Y Y / ^ } :.Y W Y Y Y ^ ;.Y ;.#.X.7.Y ;.Y Y Y  .^ Y _ Y Y  . .;.1.t.2.>.;.$.$.X./ t.` Y J W Y Y Y ",
"t.t.r.Y O.;.;.;.>.X.Y ;.' -.' ;.Y t.t.1.t.>.X.Y ;.' -.^ %.-.Y Y 9.Y Y W Y ;.;.;.;.1. ./ -.;.;.;.2.>.;.;.-.Y Y +.2.e.t.Y  .;.;.' ",
"t.X.r.r.2.e.2.>.;.;.;.;.;.;.X.;.$.t.Y 2.t.t.t.5.' / Y Y Y $.Y Y 7.Y Y *.' X.Y >.2.;.;.;.e.;.;.;.2.;.e.;.;.-._ ;.X.X.X.%.#.;.%.;.",
"2.` ` Y >.t.r.t.;.t.;.Y { Y X.Y Y Y / Y $.t.r.t.t.t.r.Y W >.Y / N.t.X.Y -.t.r.t.2.q.t.t.r.t.2.;.t.t.;.4.r.t./ $.Y Q L ;.Y Y Y Y ",
"Y Y Y t.@.t.t.t.5.t.t./ *.Y Y Y r.X.W X.#.4.4.>.*.e.X.;.t.t.>.Y N...Y Y b Z Y  .Y Y e.@.t.2.$.1.t.q.>.t.t.t.` Y ] Y Y Y Y Y X.Y ",
"t.-.t.t.e.t.t.t.t.t.t.t.' t.>.2.*.-.` Y Y Y Y t.$./ t.1.;.;.t.Y 0.W ;.z 1 u J ;.Y W ..Y ^ ;.| ;.;.X.;.;.t.2.e.t.5.t.t. .` w.;.t.",
"q.t.q.>.q.t.Y t.t.e.| 5.t.t.r.t.t.;.;.t.^ t.X.t.^ t.;.;.;.;.;.Y 7.t.Y z ; 1 C ;.;.;. .#.Y Y / Y ^ ;.;.;.t.t.{ / ` t.;.e.1.>.t.r.",
"e.;.;.' Y Y { Y $.Y X.;.t.t.t.t.t.t.r.t.t.t.t.t.Y :.t.r.t.t.r.Y N.Y t.X.v c %.#.-.W Y -.Y Y  .' _ Y W Y t.Y ` Y Y ..1.;.;.>.1.>.",
";.;.;.#.Y t.W Y Y Y Y ` t.t.t.;.Y o.<.t.t.t.t.t.2.t.r.t.r.t.t.Y x.t.t.t.1.;.` ;.O.;.Y _  .Y W Y Y Y :.{ ;.t.$.] :.t.;.;.;.e.>.;.",
"t.q.e.t.` r.t.` ` Y ^ | Y { { Y ` Y t./ -.>.e.t.;.t.;.q.e.t.t./ N.t.t.t.t.{  .;.W Y Y ^ ` ;.;. .Y t.Y X.t.t.>.4.Y t.$.q.e.t.t.4.",
"t.Y t.t.t.5.t.4.` Y Y  .^ Y Y 4.X.Y Y Y ;.;.;.;.;.2.;.;.;.t.&./ N.t.` t.t.{ Y Y ^  .W Y X.;.2.>.2.e.t.5.t.t.t.t.Y 2.t.t.t.t.5.t.",
"5 9 5 i 9 r i p f y h h h h g h h h y h h h g h h h h h i h y y x 4 5 5 5 w 5 5 h p i h g h h g g h h h h h h g 4 4 6 i 9 5 5 5 ",
"+ X X X X + : % < < < & , > < < < > < < < < < < < < * % X X $ X   X X   X < < < < < < < < < < < < < < < < < < X < > O X X X - X ",
"m.m.i.v.N.N.7.h.y.7.7.M.N.l.u.7.z.b.p.n.l.N.N.N.N.N.b.m.c.7.f.j.7.7.7.b.9.N.N.z.N.N.N.N.N.z.N.N.N.N.N.N.N.N.N.N.N.v.v.i.7.M.7.X.",
"N.` t.t.t.(  .Y Y #.Y ' -.Y Y / ^ Y Y Y e.t.t.;.t.Y ;.Y ^ ^ ;.Y Y Y Y Y / 2.5.t.r.-.t.r.5.t.r.-.t.t.5.t.*.t.t.t.;.1.4.e.r.t.t.Y ",
"z.' Y Y ] ' t.t.t./ -.;.' Y -.%.%. .;.q.;.e.;.q.' Y ' Y Y #.Y Y X.Y Y Y Y `  .Y  .>.Y ]  .Y  .R Y ( t.t.O.;.t.4.4.;.4.;.t.t.&.Y ",
"y.Y Y 2.Y { e.$.;.| ;.;.;.;.;.O. .` ;.;.%.' | ;.^ Y Y Y Y ^ Y | W Q Y Y ^ Y { ` ;.Y Y P { ` ;.Y r.Y  .Y  ./ ..O. .;.;.>.e.;.t.X.",
"c.;.) t.t.Y t.t.5.Y Y Y Y ;./ Y Y %.Y Y Y _  .W ;.;.;.1.>.$.$.^ ;.;.%.;.t.<./ { ;.' ;.O./ { ;.X.t.r.*.t.' Y Y Y Y W Y ` ;.;.t.Y ",
"c.r.t.t.t.t.t.t.t.W Y Y | X.Y Y Y Y Y W %.Y Y ;.5.N ! 1.;.2.q.1.;.;.>.;.r.t.t.e.;.q.;.;.;.+.$.O.t.t.t.4.e.2.X.Y 2.Y r.Y ;.$.;.Y ",
"N.t.t.t.t.t.r.t.t.t.r.t.t.Y ;.6.r.t.r.*.t.t.( t.k 1 u K t.t.t.>.e.e.r.>.t.t.t.t.t.q.;.r.t.t.t.t.r.t.e.t.t.t.t.Y t.' t.t.r.t.4./ ",
"N.t.t.t.<.Y t.3.X.t.r.t.;.t.5.O.O.5.^ t.t.t.r.2.j : 1 B 2.t.t.o.t.t.t.r.t.{ t.%.t.r.r.t.t...5.e.;.t.t.t.4.;.>.4.r.4.t.t.t.t.t.Y ",
"N.t.r.t.;.Y Y t.Y Y Y ..r.Y ;.;.' %.r.t.t.t.4.;.;.c n  .Y Y Y Y e.t.t.r.^ X.Y ` Y Y t.W Y  .Y ;.1.e.>.2.;.=.4.r.;.r.t.t.t.e.t.Y ",
"M.4.] Y Y Y Q -.O.O.X.Y | D ;.r.X.-.` t.t./ 2.^ ;.$.Y / r.Y Y 2.t.4.t.;./ W / Y Y Y Y Y Y Y Y ` ;.;.Y $.X.W ;.>.;.;.e.t.4.q.t.Y ",
"s.Y Y Y Y ` ;.;.;.' %.Y -.;.r.;.t.q.$.Y Y ^ ) { ` 2.<.r.t.Y / 5.4.;.q.;.;.;.;._ $.;. .;.>.;.X.#.' $.Y ^ X.Y ;.;.;.;.;.2.;.;.;.Y ",
"7.Y Y Y Y X.-.;.r.X.-.;.;.;.;.3.-.;.t.r.Y Y ^ Y Y Y $.t.X.Y >.r. . .Y Y ;.;.;.] ;.W ;.;.;.;.;.;.Y W Y Y Y ] -.;.t.;.;.;.4.;.q.Y ",
"c.X.Y t.t.t.4.r.;.t.q.;.;.;.;.;.t.r.q./ t.t.4.' 5.,.o.{ Y O.;.%.O.Y ;.$.Y Y ' Y Y ;.;.q.e.q.e.%.t.t.t.r.5.t.:.t.>.t.e.q.t.t.t./ ",
"M.t.t.t.>.&./ t.4.;.t.5.t.;./ #.;.t.t.t.t.t.t.t.t.,.` ) t./ 2.2.U ] Y Y / ' t.Y *.' -.;.;.t.t.W ;.t.4.$.t.t.t.t.t.t./ r.t.t.t./ ",
"m 5 5 9 5 9 i 5 5 5 8 5 5 6 t 6 5 g g h h h h h h h h g p h h h h y 7 g p h h 6 4 5 5 e 5 h r i 5 5 y e 5 y g i 5 g h h h h h h ",
"+ < & @ X X . X X X X + < < > o % X < < # % < & $ < % % < < < < < < < < = < & $ % o   + X X X X   , % X < : X X X & < < < < < + ",
"N.m.c.m.N.7.M.N.m.N.b.n.N.N.N.b.N.p.N.m.7.p.N.7.9.7.7.c.7.N.N.X.M.N.N.v.M.c.c.c.c.7.k.7.c.c.c.N.N.N.N.7.N.N.z.N.N.i.m.N.N.N.b.N.",
" .Y 1.X.t.e.r.t.Y <.5.2.2.t.4.4.' 4.t...Y Y  .e.&.^ -. .r.t.t./ m.t.t.q.O.;.%.;.;.#.^ ;.$.#.;.;.;.t.t.t.t.Y X.>.Y X.*.5.6.r.t.e.",
"Y Y Y W Y X.Y *./ Y Y Y Y { Y { t.Y W { e.t.r.2.>.;.;.X.X.t.>.Y N.2.2.1.1.Y Y Y O.Y Y Y Y #.-.;.t.t.t.q.X.t.Y / { Y Y ` b Z e.Y ",
"Y t.Y / ^ Y Y  .Y Y Y Y Y Y W Y Y Y / Y t.t.t.1.Y $.;.;.] ;.Y Y c. .;.-.Y Y W Y Y Y Y | Y ] Y 4.e.t.q.e.{ Y Y ;.Y | ] l 1 u S Y ",
"r.t.2.Y -.;.X.;.;.;.;.-. .;.;.' 2.e.Y @.t.t.t.+.#.^ ;.Y Y Y W Y p.Y W  .Y %.Y ;.;.-.;.%.-.;.;.;.;.e.>.O.$.;.X.#.-.-.+.z : 1 H X.",
"-.t.' t.>.%.q.;.;.;.;.;.` -.;.;.Y e.5.t.t.t.t.t. .Y r.` Y t.t./ 7.Y Y Y ( X.| ;.;.;.-.e.;.e.;.;.t.;.;.;.-. .;.] -.%.Y #.b n Y | ",
"r.Y Y Y $.G E 4.t.$.t.Y ;.X.Y ' Y Y Y  .;.q.t.$.t.t.W t.r.t.@./ f.:.t.Y } o.t.5.t.1.1.4.r.r.t.q.t.e.t.4.e.t.Y ' #.{ ^ W Q P Y ^ ",
"Y Y e.D k 1 i ~ r.t.r.r.2.Y Y $.{ Y ;.Y | r.t.t.e.{ t.t.;.t.t.Y M.4.t.t.t.t.t.5.q.t.t.' t.t.r.r.r.e.r.t.r.X.t.X.Y ' Y %.Y ..W $.",
"t.r.t.;.N : 1 I r.>.t.t.>.;.Y t.t.5.-. .Y ` Y Y W >.>.e.;.;.;.Y 7.Y { Y *.;.1.q.;.Y ' Y Y / 1.;.q.$.;.t.t.t.r.2.t.t.t.r.e.&.2.t.",
"q.t.t.t.e.N n W e.t.r.t.t.e.t.t.t.e.;.Y Y X.;.Y ` Y 4.1.t.>.t.Y d./ Y Y ;.X.;.;.Y  .Y /  .Y Y O.;.-._ r.X.:.t.t.t.1.r.t.t.t.2.t.",
"q.2.4.;.Y 3.[ :.Y ;.;.4.>.t.%.t.t.t.q.t.>.t.t.e.t.t.4.4.r.e.t.Y c.t.t.Y | ;.;.$. .;.;.-.Y Y X.Y X.Y Y *...Y ` Y Y  .>.2.;.>.;.;.",
";.;.;.4.-.{ Y  .Y $.O.2.1.%.t.5.4.{ t.e.r.r.t.2.t.t.t.4.t.t.r.Y N.t.t.t.1.;.-.;.Y X.O.X.^ W O.Y *.Y Y t.2.Y Y Y { W X.>.>.>.;.;.",
"t.4.q.2.r.Y ..' ^ Y Y Y Y  .Y ^ t.{ Y | ;.4.2.4.;.;.;.;.e.%.t./ N.t.%.t.r.t.W Y Y | ;.Y %.-.;.&.e.@.t.t.Y t.5.Y t.1.r.;.;.e.t.5.",
"t.{ / t.` { r.r.*.Y t.Y 2.Y Y Y Y Y Y Y r.;.;.4.>.;.q.1.e.W t./ M.{ t.3.t.t.Y Y e.Y / ' $.;.;.1.e.t.t.t.t.t.t.r.r.r.%.t.r.t.*.Y ",
"5 i h 5 5 5 h h h h h i h y h u g g 5 i h h h h a h h d e 5 5 9 M 7 5 6 5 4 9 r h p f i h g p f h h h h h h h h 8 7 9 6 5 5 h 7 ",
"X X X $ . X < < < : < : < < > # > < < < < , < < < < , - > o X   X X X X + X + X < < < < < < < < < < < < < < < > X o X X X X @   "
};
