/* XPM */
static char *_4591_4ebb33d20fe1502ab6b054f615fb83b220b4ab56cb7740d3e4ef7a482d85664c[] = {
/* columns rows colors chars-per-pixel */
"64 64 86 1 ",
"  c #4C4C4C",
". c gray30",
"X c #4E4E4E",
"o c gray31",
"O c #505050",
"+ c #515151",
"@ c gray32",
"# c #535353",
"$ c gray33",
"% c #555555",
"& c #565656",
"* c gray34",
"= c #585858",
"- c gray35",
"; c #5A5A5A",
": c #5B5B5B",
"> c gray36",
", c #5D5D5D",
"< c gray37",
"1 c #5F5F5F",
"2 c #606060",
"3 c gray38",
"4 c #626262",
"5 c gray39",
"6 c #646464",
"7 c #656565",
"8 c gray40",
"9 c #676767",
"0 c #686868",
"q c DimGray",
"w c #6A6A6A",
"e c gray42",
"r c #6C6C6C",
"t c #6D6D6D",
"y c gray43",
"u c #6F6F6F",
"i c gray44",
"p c #717171",
"a c #727272",
"s c gray45",
"d c #747474",
"f c gray46",
"g c #767676",
"h c #777777",
"j c gray47",
"k c #797979",
"l c gray48",
"z c #7B7B7B",
"x c #7C7C7C",
"c c gray49",
"v c #7E7E7E",
"b c gray50",
"n c #808080",
"m c #818181",
"M c gray51",
"N c #838383",
"B c #848484",
"V c gray52",
"C c #868686",
"Z c gray53",
"A c #888888",
"S c #898989",
"D c gray54",
"F c #8B8B8B",
"G c gray55",
"H c #8D8D8D",
"J c #8E8E8E",
"K c gray56",
"L c #909090",
"P c gray57",
"I c #939393",
"U c gray59",
"Y c #979797",
"T c #989898",
"R c gray60",
"E c #9A9A9A",
"W c #9B9B9B",
"Q c gray61",
"! c #9D9D9D",
"~ c gray62",
"^ c #9F9F9F",
"/ c #A0A0A0",
"( c gray63",
") c #A2A2A2",
"_ c gray64",
"` c #A5A5A5",
/* pixels */
"W!E!RRRRRRRRRRRRRE^!!^(`DDDDDDAQIYITW`/!!!!!!RRRRRRRRRRR!E!!!b*$",
"!IIILKKKKKKKKKKKKLIIIIINNNhhhNnfjWSJUWWRYIIIPKKKKKKKKKKKKKKKx3**",
"!ISSZVVVVVVVVVVVVVSSSSHjzppppwpwzzNmAPFPPHFSSAVVVnbMVVVVVVVz93**",
"!ISbbbzzzzbbnbzzzzbbbbVsrrrr8rwrr0eqvznZZZNbbvzzzjffjzczczzp9%**",
"WISbbbbzbzNCNNNnnzZZpZddr8888r005537eezNZZbbZZmxvjgfkzbbbzbd,%$*",
"RLSbbbbbbbmZZZZZnmZZZddr88738rr70733teznZVVVZZZnmvffzbbbbyb9>%.%",
"RKZxbbbbbbmZZdZZZCsdddd88859uyeee783wsdZZZZZZZZMkvZkVNbbyy04>=##",
"RKVzxxbbbbbZZdddaaiudr888rurrrezee0r0rddZVNmZZZZfZZZVmyd00091=%#",
"WKVzzczxbbbvdwrre08rr0rr0yyreezzezxprrrddNMbbmmZZZddd88rrri91=**",
"!KVzzzzxzcceet770098877ryeeezzzzzxvydrrrriubbbNBBadr88rrrdd9e3**",
"!LVzljgzzzzzee777537677eezzzzzznMmZZddy0q00yybMbMe788rrraNyfe3**",
"!PSclfgzzzzzze77331657eezzczzzzZZVCZZZvttt977yybf5r0rrepbbbpe3**",
"!ISbNZxlvNnbce8443144eeeebbvxznZZZZVCNxzzz77798808w80dVymvzpe3**",
"!ppZddNZZZVbcy9455749erekcbbzzcZZVmNbMbczzz777770777zvNnNbzp9,**",
"mljrdddZZZZee055500eyytwxbbbzznnVBnbbbbbzzzZ0pepVyezzzzZMzzp9,$$",
"NnzdrdddZdp0750770yybybhbbbbbzbbnbbbbbbbzzNZrdNnVnvzzzzZZzzp7,#+",
"!IfNZrrrrrw07377eeybbbbbbbbbczxzzzbNZVVNNnndrdZZZZmvNZmZZzzy7*O+",
"!ISmZpwwrrr0077eeecbvbxbbbbbzzzzzzxzVzCZZZddrdZZZZZZnNZZZZzfs*.#",
"!ISbmny0err800eeezzbczzzxzxzzzzzzzzznzZZZdrdrddZZZZZZZZMZZZc3>$*",
"!ISczbbywr8r5yezzzzzzzzzzzzzzzzzzzzbxvZZBepdrrdZNzbZZZZffZZcs<**",
"!IZzzxbyww0rtezzzzzzzzzzzzzzzzzzzzzcxvMp00yddrrdybzvbZMfjfkue3**",
"WISzznnv047yyybbbzzzxzzzzzzzzzzzvcvbbbh9yyyymwryrzzzzzZMjffyq3**",
"RPZzbBZe878yybbbcbcbczzzzzzzxxzzcbbbbffhcbbbby0rezxNzvZnvffe83**",
"RKVzNNddr00yyybbbbbbzzezzeyZedvzxbbbffczbbbbby0ytzvbCZZZkhfe83*&",
"RKCxZddr70yyybbbbbbbzeee7000dddZxbmbcbbbbbbbmrrpmZNZZZZZfkfe3*+#",
"!WPndrr8w0yyybbbbbvxerr0rrrrrdddZZNbbbbbbbbbprreddZZZZZZZZkjy*o*",
"^TKdreereeaybbbbbbbzer7rr8888rddaZbbbbbbbbyy0r0wddyZZZZZZZZc4*o&",
"_WN4447998t99ffffffs629989944trekfcffaffff93444753ahcccccczhw*@*",
"^Zt7>><31>11>0weeeq9>97745777722w0eee0845q,;>>>;>45quiasyteee3**",
"b333=*****==&1,<33<,,,,%<:<<<%%,,,<13>**:,%%%%%,,,,1735q833333**",
"*****OO&#.O***##=-=######.&#&.#######o.X$###&####*##1%**-*******",
"***,--O##*:*=*##11=########.###..##O*++*1###=1&#.*:1&**=***-****",
"!!!_SD~(`(_/)`RRR`)R~RRRRRRz*%EBNmNBBE```(!Q(`xxlxxx````__`)^!!!",
"IIIvdNNEWWWWWYKKWWEYWRKPIKz<**!cclccIUEWWWYINhhNNNNNNWWWWWWWEWYI",
"PFSfppzzPPPPHZVCNPPPPLHSSc0<**!IffffSHLPPPPpppzzzzPPzzPPPPPPPPPP",
"ZbbbreyZZZZVnzzfgZZZZzzzcse3**!cfyybvbVZZdl0rdZdZZZdddZZZZZZZZZZ",
"Mbbype0ypZZZxzzzzVNmzzzzzse3**TjmbbffgNmV0070yZZnvnZvuZZZZZZZZZZ",
"bbbbye77nZZnzzzzzczczzzzzpe3**YFnfffffbb0007ecMvzzxvzzxZZZZZBZMm",
"bbbbze700Zezezzzzzzzzxzzzp9<**YGbfffffb00057ezzzzzzzzzznZZZbmmbb",
"bbbbzrr88zeeeezzezzzzvvzzp9,$%WKnfffgly09737ezzzzmczzzzzCZVbbbbb",
"bbbbbybye777reeeezzzzzNmvp9,$#RKVjfffet03337ybxnZVZZzxxbNNmbbbbb",
"bbbbbbbyydrrr07eeezzvZZZNcr7&#RKVzggwe7338r7dNZZZZZZbbbbbbbbbbbb",
"bbbbbbbbyNddrr77ezzzZZZZZcs0*$RHbkgj77735rrrddZZZVZZNNbbbbbbbbbb",
"bcbbbbbbbbui0077eezzZZZZZzsq;OBlbfg77735rrrrrdNMbnZVVBNbbbNmbbbb",
"hfbbbbbbbbbyy007eezzzmbbmfsq=*hs0790070dddu000yybVZZCZZZZNmZVNmb",
"fflbbbbbbbbbby00uzzzzbbbbfe5**hst0wryypdZZyy000ynsVZZZZZZZZZZZZn",
"Mfhxbcbcbbbccbyeyzzzxbbbbfe3*omcyuddZZdZdmbbb000uumMNnnpdpdZZZZZ",
"ggjbbbzzccczzeyw7zzzxbbbbfe3##mxDZZZZZZZNbbzyyy90bbbzveyyybbZZmM",
"zzxxzbzzzvbzzze77zzzzzcxbfe,##RKVZZZZZZbbbxzbbye9yrzze7rcbbbZNbx",
"cczzzzzzzzxzzee77zzzzzxzzp9,##RKCZZZZZZbbbbzzzez77tze77etbbbbbbv",
"Nbcxzzzzzzzzzee07zzzzzzzzp9,##RKAZNZZZZbbcvzzzzzr777777evccbmbVN",
"CbbvcxzzzvzbbNdr0zzzzzvbnp91##RKVzbmZZvzbvxzzzxvy555338eyzzbMZCV",
"ZVNnbbzzZZNZnZdrynzzznmmZze3##RKVzzVZzzzzzzzzzxty0000900bbzcbbZZ",
"ZCBbVZZZZZZZZddrZZNZnZZZZfe3$%EKVzzzvzzzzzzzzzzetyy00000ybbbbZZZ",
"ZCVbNZZZZZZnmVdrZZZZZVZZnfe3*%RKVxzzbbczzzzzzzzezbybby00wumbbNCZ",
"ZVbbbmZZZdyeypr0wddZZmbzzp01$#RKVxbbbbbffzzzzzbZbbbbbr770edcvnmC",
"bbbbbbbupuye7r077eBNNzvzzp9,##RKVzbvbbfvMZzNMnmZbbbbbr7870yebbbV",
"bbbbbyby0083443339wezezzzp9,##RKVcxxbbMNZZnZZNZVbbbbcze77780bbbb",
"yyyyyyy005435yeeeeeeeeezzpr2##RKZbbbbbbmBVZZZZZZbbbbxzze77000yyy",
"99999666699999666666876667r2##!Ivffffffffccffzcgppfdapppp2444499",
"1<>>>>>><<<111>>>>-41227>15q-*Rbeeeeeeeeeyseeyr9999999999>ee77>7",
"&%%%%%%%%%%&&%%%#@O<>::<:--<-*n333333333335332<,,,,,,,,,<3333311",
".#####..##......# #1&1&111111:1>*******-****%###########$*****##",
"$##################1111111111111#@@+$*=*1**$$###########$*****$#"
};
